<?xml version="1.0" encoding="utf-8"?>
<!-- Generator: Adobe Illustrator 25.2.1, SVG Export Plug-In . SVG Version: 6.00 Build 0)  -->
<svg version="1.1" id="Layer_1" xmlns="http://www.w3.org/2000/svg" xmlns:xlink="http://www.w3.org/1999/xlink" x="0px" y="0px"
	 viewBox="0 0 119.5 103" style="enable-background:new 0 0 119.5 103;" xml:space="preserve">
<path d="M9.8,59.8c0,4.9,1.7,9.1,5.1,12.6s7.6,5.4,12.6,5.6c0.4,0,0.7-0.2,0.7-0.6v-4.9c0-0.4-0.2-0.7-0.7-0.7
	c-3.2-0.1-5.9-1.4-8.1-3.7c-2.2-2.3-3.3-5.1-3.3-8.3c0-3.1,1-5.8,3.1-8.1c2.1-2.3,4.7-3.6,7.8-3.8l2-0.3c0.4,0,0.6-0.2,0.6-0.5
	l0.3-2c0.4-4,2.2-7.4,5.1-10.1c2.9-2.7,6.4-4,10.5-4s7.6,1.3,10.6,4c3,2.7,4.8,6,5.1,9.9l0.3,2.1c0.1,0.4,0.4,0.6,0.8,0.6h5.9
	c3.3,0,6.1,1.2,8.5,3.6c2.4,2.4,3.6,5.2,3.6,8.5c0,3.2-1.1,6-3.3,8.3s-4.9,3.5-8.1,3.7c-0.5,0-0.7,0.2-0.7,0.7v4.9
	c0,0.4,0.3,0.6,0.7,0.6c4.9-0.1,9.1-2,12.5-5.5c3.4-3.5,5.1-7.7,5.1-12.6c0-2.5-0.5-5-1.4-7.4c2.9-3.6,4.3-7.7,4.3-12.4
	c0-2.6-0.5-5.1-1.5-7.5s-2.4-4.4-4.2-6.2c-1.7-1.7-3.8-3.1-6.2-4.1c-2.4-1-4.9-1.6-7.6-1.6c-5.7,0-10.5,2.1-14.3,6.4
	c-3.3-1.6-6.7-2.4-10.2-2.4c-5.2,0-9.9,1.6-13.9,4.8s-6.6,7.4-7.7,12.5c-4.2,1-7.6,3.1-10.2,6.4C11.1,51.7,9.8,55.5,9.8,59.8z
	 M29.7,85.8c0,0.6,0.2,1.3,0.6,1.9c0.4,0.6,1,1,1.7,1.3c0.9,0.3,1.7,0.2,2.4-0.1c0.7-0.3,1.2-1,1.5-2.1l0.5-2.3
	c0.2-0.9,0.1-1.6-0.4-2.3c-0.4-0.7-1.1-1.2-1.9-1.5c-0.9-0.3-1.6-0.1-2.4,0.3c-0.7,0.4-1.2,1.1-1.4,1.9l-0.5,2.2
	C29.7,85.3,29.7,85.5,29.7,85.8z M32.6,75c0,0.8,0.3,1.5,0.9,2.1c0.6,0.7,1.3,1,2.1,1c0.9,0,1.6-0.3,2.2-0.9
	c0.6-0.6,0.9-1.3,0.9-2.2c0-0.9-0.3-1.6-0.9-2.2c-0.6-0.6-1.4-0.9-2.2-0.9c-0.9,0-1.6,0.3-2.2,0.9C32.8,73.4,32.6,74.2,32.6,75z
	 M34.8,66.6c0,0.6,0.1,1.1,0.5,1.7c0.4,0.6,1,0.9,1.8,1.2c0.8,0.2,1.5,0.1,2.3-0.3c0.8-0.4,1.3-1,1.6-1.9l1-3.3
	c0.3-0.9,0.2-1.7-0.3-2.4c-0.4-0.7-1.1-1.2-2-1.4c-0.8-0.3-1.6-0.2-2.3,0.3c-0.7,0.4-1.3,1-1.5,1.8l-0.9,3.4
	C34.9,66.3,34.8,66.6,34.8,66.6z M39.1,97.3c0,0.6,0.2,1.2,0.6,1.8c0.4,0.6,1,1,1.8,1.2c0.3,0.1,0.6,0.1,0.9,0.1
	c1.6,0,2.6-0.7,3-2.3l0.5-2.2c0.2-1,0.1-1.8-0.3-2.5c-0.4-0.7-1.1-1.2-1.9-1.4c-0.8-0.3-1.6-0.2-2.3,0.3c-0.8,0.4-1.3,1.1-1.5,1.9
	l-0.5,2.2C39.1,96.9,39.1,97.2,39.1,97.3z M41.2,14.3c0,0.9,0.3,1.6,0.9,2.2l2.5,2.4c0.5,0.6,1.2,0.9,2,1s1.6-0.3,2.3-1
	c0.6-0.6,0.9-1.3,0.9-2.2c0-0.9-0.3-1.6-0.9-2.2l-2.3-2.4c-0.6-0.6-1.3-0.9-2.2-1c-0.9,0-1.6,0.3-2.2,0.9
	C41.5,12.7,41.2,13.4,41.2,14.3z M42,86.6c0,0.9,0.3,1.6,0.9,2.1c0.6,0.6,1.3,0.9,2.2,0.9c0.9,0,1.6-0.3,2.2-0.9
	c0.6-0.6,0.9-1.3,0.9-2.2c0-0.9-0.3-1.6-0.9-2.1c-0.6-0.6-1.3-0.9-2.2-0.9s-1.6,0.3-2.2,0.9S42,85.7,42,86.6z M44.3,78.2
	c0,0.6,0.1,1.1,0.5,1.7c0.4,0.6,0.9,1,1.7,1.1c0.9,0.2,1.6,0.1,2.4-0.2c0.7-0.4,1.2-1.1,1.5-2.1l1-3.3c0.3-0.8,0.2-1.6-0.3-2.3
	c-0.4-0.7-1.1-1.2-2-1.5c-0.8-0.3-1.6-0.1-2.4,0.3c-0.8,0.4-1.3,1.1-1.5,2l-0.8,3.3C44.4,77.5,44.3,77.8,44.3,78.2z M54.6,86.1
	c0,0.6,0.2,1.2,0.6,1.8c0.4,0.6,0.9,1,1.7,1.2c0.1,0,0.3,0,0.5,0.1c0.2,0,0.4,0.1,0.5,0.1c1.5,0,2.5-0.8,2.8-2.4l0.5-2.2
	c0.3-0.8,0.2-1.6-0.3-2.3c-0.4-0.8-1.1-1.3-1.9-1.5c-0.9-0.2-1.8-0.1-2.5,0.3c-0.7,0.4-1.3,1.1-1.5,2l-0.3,2.2c0,0,0,0.2,0,0.4
	C54.6,85.8,54.6,86,54.6,86.1z M57.3,75.2c0,0.9,0.3,1.6,0.9,2.1c0.6,0.6,1.3,0.9,2.2,0.9c0.9,0,1.6-0.3,2.2-0.9
	c0.6-0.6,0.9-1.3,0.9-2.1c0-0.9-0.3-1.6-0.9-2.2c-0.6-0.6-1.3-0.9-2.2-0.9c-0.9,0-1.6,0.3-2.2,0.9C57.6,73.6,57.3,74.3,57.3,75.2z
	 M59.6,66.6c0,0.6,0.2,1.2,0.6,1.8c0.4,0.6,1,1,1.8,1.2c0.1,0,0.2,0,0.4,0.1c0.2,0,0.4,0.1,0.5,0.1c0.4,0,0.9-0.1,1.4-0.3
	c0.8-0.4,1.3-1,1.5-1.9l0.9-3.3c0.2-0.9,0.1-1.6-0.3-2.3c-0.4-0.7-1-1.2-1.9-1.5c-0.9-0.3-1.7-0.2-2.4,0.2c-0.7,0.4-1.2,1-1.5,1.9
	l-1,3.4c0,0.1,0,0.2,0,0.4C59.6,66.3,59.6,66.5,59.6,66.6z M60.9,30.7c2.5-2.4,5.5-3.7,9.2-3.7c3.7,0,6.8,1.3,9.4,3.8
	s3.9,5.5,3.9,9.2c0,2.4-0.7,4.8-2,7c-3.6-3.6-8-5.4-13-5.4h-1.2C66.1,37.4,64,33.8,60.9,30.7z M67,11.2c0,0.9,0.3,1.6,0.9,2.1
	c0.6,0.6,1.3,0.9,2.2,0.9c0.9,0,1.7-0.3,2.3-0.9s0.9-1.3,0.9-2.1V3.6c0-0.9-0.3-1.6-1-2.2s-1.4-0.9-2.3-0.9s-1.6,0.3-2.2,0.9
	c-0.6,0.6-0.9,1.4-0.9,2.2L67,11.2L67,11.2z M87.5,19.6c0,0.9,0.3,1.7,0.9,2.2c1.3,1.3,2.8,1.3,4.5,0l5.3-5.3
	c0.6-0.6,0.9-1.4,0.9-2.3c0-0.9-0.3-1.6-0.9-2.2c-0.6-0.6-1.4-0.9-2.2-0.9c-0.9,0-1.6,0.3-2.3,0.9l-5.3,5.5
	C87.8,18,87.5,18.7,87.5,19.6z M90.4,63.4c0,0.9,0.3,1.6,1,2.2l2.3,2.3c0.7,0.6,1.5,0.9,2.3,0.9c0.7,0,1.5-0.3,2.2-0.9
	c0.6-0.6,0.9-1.3,0.9-2.2c0-0.9-0.3-1.6-0.9-2.3l-2.4-2.3c-0.6-0.6-1.3-0.9-2.1-0.9c-0.9,0-1.6,0.3-2.2,0.9
	C90.8,61.8,90.4,62.6,90.4,63.4z M95.9,40c0,0.9,0.3,1.6,1,2.2c0.7,0.7,1.4,1,2.3,1h7.5c0.9,0,1.6-0.3,2.2-0.9
	c0.6-0.6,0.9-1.4,0.9-2.3s-0.3-1.6-0.9-2.2c-0.6-0.6-1.3-0.9-2.2-0.9h-7.5c-0.9,0-1.6,0.3-2.3,0.9C96.2,38.4,95.9,39.1,95.9,40z"/>
</svg>
