<?xml version="1.0" encoding="utf-8"?>
<!-- Generator: Adobe Illustrator 25.2.1, SVG Export Plug-In . SVG Version: 6.00 Build 0)  -->
<svg version="1.1" id="Layer_1" xmlns="http://www.w3.org/2000/svg" xmlns:xlink="http://www.w3.org/1999/xlink" x="0px" y="0px"
	 viewBox="0 0 118 92.8" style="enable-background:new 0 0 118 92.8;" xml:space="preserve">
<path d="M11.1,58.3c0,1,0.4,1.8,1,2.4c0.6,0.7,1.4,1,2.4,1h37.1c0.9,0,1.7-0.3,2.3-1s0.9-1.5,0.9-2.4c0-0.9-0.3-1.7-0.9-2.4
	c-0.6-0.6-1.4-1-2.3-1H14.5c-0.9,0-1.7,0.3-2.4,1S11.1,57.3,11.1,58.3z M12.4,82.9c0,1,0.3,1.8,1,2.4c0.6,0.7,1.4,1,2.4,1h37.1
	c0.9,0,1.7-0.3,2.4-1s1-1.5,1-2.4s-0.3-1.7-1-2.4s-1.5-1-2.4-1H15.8c-0.9,0-1.7,0.3-2.4,1C12.7,81.1,12.4,81.9,12.4,82.9z
	 M17.8,70.5c0,1,0.3,1.7,1,2.4c0.7,0.6,1.5,0.9,2.5,0.9h37c0.9,0,1.7-0.3,2.3-0.9c0.6-0.6,0.9-1.4,0.9-2.4c0-1-0.3-1.8-0.9-2.4
	c-0.6-0.6-1.4-1-2.3-1h-37c-1,0-1.8,0.3-2.5,1C18.1,68.7,17.8,69.5,17.8,70.5z M27.4,45.1c0-1,0.4-1.8,1-2.5c0.7-0.6,1.5-1,2.4-1h8
	c0.9,0,1.7,0.3,2.3,1s0.9,1.5,0.9,2.4s-0.3,1.8-0.9,2.4c-0.6,0.7-1.4,1-2.3,1h-8c-0.9,0-1.7-0.3-2.4-1C27.7,46.8,27.4,46,27.4,45.1z
	 M38.6,17.4c0-0.9,0.3-1.7,0.9-2.4c0.7-0.6,1.6-1,2.5-1c0.9,0,1.7,0.3,2.3,1l5.6,5.9c0.6,0.6,0.9,1.4,0.9,2.4c0,1-0.3,1.8-0.9,2.4
	s-1.4,1-2.4,1c-0.9,0-1.7-0.3-2.3-1l-5.7-5.7C38.9,19.1,38.6,18.3,38.6,17.4z M48.7,44.6v-0.3c0.1-3.6,1.1-7,2.9-10.1
	c1.9-3.1,4.4-5.5,7.5-7.3s6.5-2.7,10.1-2.7c2.8,0,5.4,0.6,8,1.7c2.5,1.1,4.7,2.6,6.5,4.5c1.9,1.9,3.3,4.1,4.4,6.6
	c1.1,2.6,1.6,5.3,1.6,8.1c0,3.8-0.9,7.2-2.7,10.4c-1.8,3.2-4.3,5.7-7.4,7.6c-3.1,1.9-6.5,2.8-10.2,2.8h-0.8c-0.3,0-0.5-0.1-0.7-0.3
	s-0.3-0.4-0.3-0.7V60c0-0.5,0.3-0.8,0.9-0.8h0.9c3.8,0,7.1-1.4,9.7-4.2c2.7-2.8,4.1-6.1,4.1-10c0-3.8-1.4-7.1-4.1-9.9
	c-2.7-2.7-6-4.1-9.8-4.1c-3.7,0-6.9,1.3-9.6,3.9c-2.7,2.6-4.1,5.8-4.3,9.5c0,0.2-0.1,0.4-0.3,0.7c-0.2,0.2-0.5,0.4-1,0.4h-4.5
	C48.9,45.5,48.7,45.2,48.7,44.6z M65.9,84.1v-8c0-1,0.3-1.8,0.9-2.4s1.4-1,2.4-1s1.8,0.3,2.4,1c0.6,0.6,0.9,1.4,0.9,2.4v8
	c0,1-0.3,1.8-1,2.5s-1.5,1-2.4,1c-0.9,0-1.7-0.3-2.4-1S65.9,85.1,65.9,84.1z M65.9,14.2V6c0-1,0.3-1.8,1-2.4c0.7-0.6,1.4-1,2.4-1
	c0.9,0,1.7,0.3,2.4,1c0.7,0.7,1,1.5,1,2.4v8.2c0,0.9-0.3,1.7-1,2.3c-0.7,0.6-1.5,0.9-2.4,0.9c-0.9,0-1.7-0.3-2.4-0.9
	C66.2,15.9,65.9,15.1,65.9,14.2z M87.6,66.9c0-0.9,0.3-1.7,0.9-2.2c0.6-0.6,1.3-0.9,2.2-0.9c0.9,0,1.7,0.3,2.4,0.9l5.7,5.7
	c0.6,0.7,0.9,1.5,0.9,2.4c0,0.9-0.3,1.7-0.9,2.4c-1.6,1.2-3.2,1.2-4.7,0l-5.6-5.7C87.9,68.8,87.6,67.9,87.6,66.9z M87.6,23.2
	c0-1,0.3-1.8,0.9-2.4l5.6-5.9c0.7-0.6,1.5-1,2.3-1c0.9,0,1.7,0.3,2.4,1c0.7,0.7,1,1.5,1,2.4c0,1-0.3,1.8-0.9,2.5l-5.7,5.7
	c-0.7,0.6-1.5,1-2.4,1c-0.9,0-1.6-0.3-2.2-1C87.9,24.9,87.6,24.1,87.6,23.2z M96.5,45.1c0-0.9,0.3-1.8,1-2.5c0.6-0.6,1.4-1,2.2-1h8
	c0.9,0,1.7,0.4,2.4,1c0.7,0.7,1,1.5,1,2.4c0,0.9-0.4,1.7-1,2.4c-0.7,0.7-1.5,1-2.4,1h-8c-0.9,0-1.7-0.3-2.3-1
	C96.8,46.8,96.5,46,96.5,45.1z"/>
</svg>
