<?xml version="1.0" encoding="utf-8"?>
<!-- Generator: Adobe Illustrator 25.2.1, SVG Export Plug-In . SVG Version: 6.00 Build 0)  -->
<svg version="1.1" id="Layer_1" xmlns="http://www.w3.org/2000/svg" xmlns:xlink="http://www.w3.org/1999/xlink" x="0px" y="0px"
	 viewBox="0 0 104.7 81.6" style="enable-background:new 0 0 104.7 81.6;" xml:space="preserve">
<path d="M2.4,55.9c0-5.1,1.4-9.7,4.2-13.7s6.3-6.5,10.7-7.7c1.2-6,3.8-11,8-14.8c4.2-3.9,9-5.8,14.5-5.8c5.3,0,10.1,1.9,14.2,5.6
	c4.2,3.8,6.9,8.6,8.1,14.4h1.2c5.3,0,9.8,2.1,13.6,6.4s5.6,9.4,5.6,15.5c0,6.1-1.9,11.2-5.6,15.5c-3.7,4.3-8.2,6.4-13.6,6.4H21.6
	c-2.6,0-5.1-0.6-7.4-1.8S9.7,73.4,8,71.4s-3.1-4.3-4.1-7C2.9,61.7,2.4,58.8,2.4,55.9z M8.9,55.9c0,3.9,1.3,7.3,3.7,10.1
	c2.4,2.8,5.4,4.2,9,4.2h41.8c3.5,0,6.5-1.4,9-4.2S76,59.8,76,55.9c0-3.9-1.2-7.3-3.7-10.1c-2.5-2.8-5.4-4.2-9-4.2h-6.3
	c-0.5,0-0.7-0.3-0.7-0.8l-0.3-2.5c-0.5-4.8-2.3-8.9-5.4-12.1c-3.1-3.2-6.8-4.8-11-4.8s-7.9,1.6-11.1,4.8c-3.2,3.2-4.9,7.3-5.3,12.1
	L23,40.4c0,0.5-0.2,0.8-0.7,0.8l-2,0.4c-3.2,0.3-5.9,1.9-8.1,4.6C10,48.9,8.9,52.1,8.9,55.9z M48.7,10.9c-0.5,0.5-0.4,0.8,0.3,1.1
	c1.9,1,3.6,1.9,4.9,2.8c0.5,0.2,0.9,0.1,1-0.2c2.7-2.9,5.9-4.4,9.5-4.4c3.6,0,6.8,1.4,9.5,4.2c2.7,2.8,4.1,6.2,4.5,10.3l0.4,3.3h6.4
	c2.9,0,5.4,1.2,7.6,3.6c2.1,2.4,3.2,5.3,3.2,8.6c0,3.1-0.9,5.8-2.8,8.1c-1.8,2.3-4.1,3.6-6.9,4c-0.5,0-0.7,0.3-0.7,0.8v5.8
	c0,0.6,0.2,0.8,0.7,0.8c4.5-0.3,8.4-2.4,11.5-6.1c3.1-3.8,4.7-8.2,4.7-13.4c0-5.5-1.7-10.1-5-13.9c-3.4-3.9-7.4-5.8-12.2-5.8h-0.7
	c-1.2-5.2-3.6-9.4-7.4-12.7c-3.7-3.4-8-5-12.6-5C58.1,2.7,52.9,5.5,48.7,10.9z"/>
</svg>
