<?xml version="1.0" encoding="utf-8"?>
<!-- Generator: Adobe Illustrator 25.2.1, SVG Export Plug-In . SVG Version: 6.00 Build 0)  -->
<svg version="1.1" id="Layer_1" xmlns="http://www.w3.org/2000/svg" xmlns:xlink="http://www.w3.org/1999/xlink" x="0px" y="0px"
	 viewBox="0 0 146.1 119.3" style="enable-background:new 0 0 146.1 119.3;" xml:space="preserve">
<path d="M30,68.6c0,2.9,0.6,5.6,1.8,8.2c1.2,2.6,2.8,4.8,4.9,6.8c2.1,1.9,4.5,3.4,7.4,4.6c2.8,1.2,5.8,1.8,9,2
	c0.5,0,0.8-0.3,0.8-0.7v-5.8c0-0.5-0.3-0.8-0.8-0.8c-4.2-0.3-7.7-1.8-10.5-4.5c-2.8-2.7-4.3-5.9-4.3-9.6c0-3.7,1.3-6.8,4.1-9.5
	c2.7-2.7,6.1-4.2,10.1-4.5l2.5-0.3c0.6,0,1-0.3,1-0.7l0.3-2.3c0.3-3.1,1.4-5.9,3.3-8.5c1.9-2.5,4.3-4.5,7.3-6c3-1.4,6.2-2.1,9.7-2.1
	c5.2,0,9.9,1.6,13.8,4.7c3.9,3.1,6.2,7.1,6.7,11.8l0.3,2.5c0,0.5,0.3,0.8,0.9,0.8h7.8c4.3,0,8,1.4,11.2,4.2c3.1,2.8,4.7,6.1,4.7,10
	c0,3.7-1.4,6.9-4.3,9.6c-2.8,2.7-6.4,4.2-10.5,4.5c-0.6,0-1,0.3-1,0.8v5.8c0,0.5,0.3,0.7,1,0.7c6.5-0.3,11.9-2.5,16.3-6.6
	s6.6-9.1,6.6-14.9c0-3.9-1.1-7.5-3.2-10.8c-2.2-3.3-5.1-5.9-8.7-7.8c-3.7-1.9-7.7-2.9-11.9-2.9h-1.5c-1.6-5.8-5-10.5-10.2-14.3
	c-5.3-3.7-11.3-5.6-17.9-5.6c-6.8,0-12.8,1.9-18.1,5.8s-8.7,8.8-10.2,14.7c-5.3,1.1-9.7,3.7-13.1,7.6C31.8,59.1,30,63.6,30,68.6z
	 M60,74.1c0,3.2,0.9,6.2,2.7,9c1.8,2.8,4.2,5,7.3,6.6c3,1.7,6.4,2.4,9.9,2.4c5.5,0,10.3-1.8,14.2-5.3c3.9-3.6,5.9-7.8,5.9-12.7
	c0-1-0.4-1.9-1.2-2.6s-1.8-1.1-2.9-1.1c-1.2,0-2.1,0.3-2.9,1.1s-1.3,1.6-1.3,2.6c0,2.9-1.2,5.4-3.5,7.5c-2.3,2.1-5.1,3.1-8.3,3.1
	c-3.2,0-5.9-1-8.2-3.1c-2.3-2.1-3.5-4.6-3.5-7.5c0-2.6,0.9-4.9,2.6-7c1.7-2,3.8-3.2,6.3-3.4l-2,1.7C74.4,66.1,74,67,74,68
	c0,1.1,0.3,2,1.1,2.9c0.7,0.7,1.5,1,2.6,1c1.1,0,2.2-0.3,3.4-1l8.8-8.1c0.8-0.7,1.2-1.6,1.2-2.5c0-1.1-0.4-2-1.2-2.7l-8.8-8
	c-0.9-0.8-1.9-1.1-3-1.1c-1.1,0-2.1,0.3-2.8,1.1c-0.8,0.7-1.2,1.6-1.2,2.7c0,1,0.3,1.9,1.1,2.5l1.7,1.6C72,57,68,59,64.8,62.3
	C61.6,65.7,60,69.6,60,74.1z"/>
</svg>
