<?xml version="1.0" encoding="utf-8"?>
<!-- Generator: Adobe Illustrator 25.2.1, SVG Export Plug-In . SVG Version: 6.00 Build 0)  -->
<svg version="1.1" id="Layer_1" xmlns="http://www.w3.org/2000/svg" xmlns:xlink="http://www.w3.org/1999/xlink" x="0px" y="0px"
	 viewBox="0 0 142 114.2" style="enable-background:new 0 0 142 114.2;" xml:space="preserve">
<path d="M32.6,72.4c0,6,2.2,11.1,6.7,15.4c4.5,4.3,9.9,6.6,16.4,6.9c0.5,0,0.8-0.3,0.8-0.8v-6c0-0.5-0.3-0.9-0.8-0.9
	c-4.1-0.2-7.6-1.7-10.5-4.6c-2.9-2.9-4.3-6.2-4.3-10.1c0-3.7,1.3-6.9,4-9.7c2.7-2.7,6.1-4.4,10.1-4.8h2.6c0.6,0,1-0.3,1-0.8l0.3-2.6
	c0.5-4.9,2.7-8.9,6.6-12.2c3.9-3.3,8.5-4.9,13.8-4.9c5.2,0,9.8,1.7,13.7,4.9c3.9,3.3,6.2,7.4,6.7,12.2l0.4,2.6
	c0,0.5,0.3,0.8,0.9,0.8h7.8c4.3,0,8,1.4,11.1,4.3c3.1,2.9,4.7,6.3,4.7,10.2c0,3.9-1.4,7.2-4.3,10.1c-2.9,2.9-6.4,4.4-10.5,4.6
	c-0.6,0-1,0.3-1,0.9v6c0,0.5,0.3,0.8,1,0.8c4.2-0.1,8-1.2,11.6-3.2c3.5-2,6.3-4.7,8.3-8.1c2-3.4,3-7.1,3-11c0-3-0.6-5.9-1.9-8.6
	c-1.3-2.7-3-5.1-5.1-7.1c-2.1-2-4.7-3.6-7.6-4.7c-2.9-1.2-6-1.8-9.2-1.8h-1.5c-1.6-6-5-10.9-10.2-14.8c-5.2-3.8-11.1-5.8-17.7-5.8
	c-6.8,0-12.9,2-18.1,5.9s-8.6,9-10.1,15.1c-5.3,1.2-9.7,3.7-13.2,7.8C34.3,62.7,32.6,67.3,32.6,72.4z M66,75.3
	c0,1.1,0.4,2.1,1.2,2.9c0.7,0.7,1.7,1,2.9,1c1.2,0,2.2-0.4,3-1l5.3-5.1v17.9c0,1.1,0.4,2,1.1,2.7c0.8,0.8,1.7,1.1,2.8,1.1
	c1.1,0,2.1-0.4,2.9-1.1c0.8-0.8,1.2-1.7,1.2-2.7V73.2l5.4,5c1.9,1.4,3.9,1.4,5.9,0c0.8-0.7,1.2-1.6,1.2-2.8c0-1.1-0.4-2-1.2-2.8
	L85.3,61.1c-0.8-0.7-1.7-1.1-2.9-1.1c-1.2,0-2.1,0.4-2.8,1.1L67.1,72.6C66.4,73.3,66,74.2,66,75.3z"/>
</svg>
