<?xml version="1.0" encoding="utf-8"?>
<!-- Generator: Adobe Illustrator 25.2.1, SVG Export Plug-In . SVG Version: 6.00 Build 0)  -->
<svg version="1.1" id="Layer_1" xmlns="http://www.w3.org/2000/svg" xmlns:xlink="http://www.w3.org/1999/xlink" x="0px" y="0px"
	 viewBox="0 0 122.6 112.7" style="enable-background:new 0 0 122.6 112.7;" xml:space="preserve">
<path d="M13.6,72c0-1.1,0.4-2,1.1-2.8c0.7-0.7,1.6-1.1,2.6-1.1h23.8c3.2,0,6,1.1,8.3,3.5s3.4,5.1,3.4,8.4s-1.1,6.1-3.4,8.4
	c-2.3,2.3-5.1,3.4-8.3,3.4s-6.1-1.1-8.3-3.5c-0.7-0.7-1-1.6-1-2.6s0.4-2,1-2.6c0.7-0.7,1.5-1.1,2.6-1.1c1,0,1.9,0.4,2.7,1.1
	c0.9,0.8,1.9,1.3,3,1.3s2.2-0.4,3-1.3c0.8-0.8,1.3-1.9,1.3-3.1c0-1.1-0.4-2.2-1.3-3c-0.8-0.8-1.8-1.3-3-1.3H17.3
	c-1,0-1.9-0.4-2.6-1.1C13.9,73.8,13.6,73,13.6,72z M13.6,58.6c0-1.1,0.4-2,1.1-2.7c0.7-0.7,1.6-1.1,2.6-1.1h46.3
	c1.1,0,2.2-0.4,3-1.3c0.8-0.8,1.3-1.9,1.3-3s-0.4-2.2-1.3-3c-0.8-0.8-1.8-1.3-3-1.3c-1.2,0-2.2,0.4-3,1.2c-0.8,0.7-1.7,1-2.8,1
	c-1.1,0-1.9-0.4-2.6-1c-0.7-0.7-1-1.5-1-2.6s0.3-2,1-2.7c2.2-2.2,5.1-3.4,8.4-3.4c3.2,0,6.1,1.1,8.3,3.4c2.3,2.3,3.4,5.1,3.4,8.3
	c0,3.2-1.1,6-3.4,8.3c-2.3,2.3-5.1,3.4-8.3,3.4H17.3c-1.1,0-1.9-0.4-2.6-1.1C13.9,60.5,13.6,59.6,13.6,58.6z M23,48.2
	c0,0.4,0.2,0.5,0.7,0.5H30c0.4,0,0.7-0.2,1-0.7c1-2.4,2.5-4.4,4.6-6c2.1-1.6,4.4-2.5,7-2.6l2.3-0.4c0.6,0,0.9-0.3,0.9-0.7l0.3-2.3
	c0.5-4.8,2.5-8.8,6-12c3.6-3.2,7.7-4.9,12.6-4.9c4.9,0,9.1,1.6,12.6,4.8c3.6,3.2,5.6,7.2,6.1,12l0.3,2.6c0,0.5,0.3,0.7,0.7,0.7h7.1
	c4,0,7.4,1.4,10.2,4.2s4.3,6.2,4.3,10.1c0,3.9-1.4,7.3-4.3,10.1s-6.2,4.2-10.2,4.2H61.3c-0.5,0-0.8,0.3-0.8,0.7V75
	c0,0.5,0.3,0.7,0.8,0.7h30.3c4,0,7.6-1,11-3c3.4-1.9,6-4.6,8-8c2-3.4,2.9-7.1,2.9-11c0-4-1-7.7-2.9-11c-2-3.4-4.6-6-8-8s-7-3-11-3
	h-1.4C88.9,26,85.8,21.2,81,17.4c-4.7-3.7-10.2-5.6-16.4-5.6c-6.2,0-11.7,1.9-16.5,5.8s-7.8,8.8-9.1,14.9c-3.8,0.9-7.1,2.7-10,5.4
	s-4.9,6-6.1,9.7v0.2C23,47.9,23,48,23,48.2z"/>
</svg>
