<?xml version="1.0" encoding="utf-8"?>
<!-- Generator: Adobe Illustrator 25.2.1, SVG Export Plug-In . SVG Version: 6.00 Build 0)  -->
<svg version="1.1" id="Layer_1" xmlns="http://www.w3.org/2000/svg" xmlns:xlink="http://www.w3.org/1999/xlink" x="0px" y="0px"
	 viewBox="0 0 118.7 104" style="enable-background:new 0 0 118.7 104;" xml:space="preserve">
<path d="M12.7,62.5c0,7.4,2.3,13.7,6.7,19s10,8.1,16.4,8.5c0.5,0,0.8-0.3,0.8-0.9v-7.4c0-0.7-0.3-1-0.8-1c-4.1-0.2-7.7-2.1-10.5-5.6
	c-2.9-3.5-4.3-7.7-4.3-12.5c0-4.6,1.3-8.6,4.1-12c2.7-3.4,6.1-5.4,10.1-5.9l2.6-0.2c0.6,0,1-0.3,1-0.9l0.4-3c0.5-6,2.6-11,6.5-15
	c3.9-4,8.5-6,13.8-6c5.2,0,9.8,2,13.8,6c3.9,4,6.2,9,6.7,15l0.3,3.2c0,0.6,0.3,0.9,0.8,0.9h7.8c4.3,0,8,1.8,11.1,5.4
	c3.1,3.5,4.7,7.7,4.7,12.6c0,4.8-1.4,9-4.4,12.5c-2.9,3.5-6.5,5.4-10.5,5.6c-0.6,0-0.9,0.3-0.9,1v7.4c0,0.6,0.3,0.9,0.9,0.9
	c4.2-0.1,8.1-1.4,11.6-4c3.5-2.5,6.3-5.8,8.3-10c2-4.1,3-8.7,3-13.6c0-5-1.1-9.6-3.2-13.7c-2.1-4.2-5.1-7.5-8.7-9.9
	c-3.7-2.4-7.7-3.6-12-3.6h-1.6c-1.6-7.4-5-13.4-10.1-18.2S65.9,10,59.3,10c-6.8,0-12.9,2.4-18.1,7.2S32.5,28.3,31,35.9
	c-5.3,1.4-9.7,4.6-13.1,9.6S12.7,56.2,12.7,62.5z M46.2,70.9c0,1.3,0.4,2.4,1.2,3.3l12.5,14.4c0.6,0.9,1.5,1.3,2.7,1.3
	c1.3,0,2.3-0.4,2.9-1.3L78,74.3c0.8-0.9,1.2-2.1,1.2-3.3c0-1.3-0.4-2.4-1.2-3.2c-0.8-0.8-1.7-1.3-2.9-1.3c-1.2,0-2.1,0.4-3,1.3
	l-5.4,6.1v-22c0-1.3-0.4-2.4-1.2-3.3s-1.8-1.3-2.9-1.3c-1.2,0-2.1,0.4-2.8,1.3c-0.8,0.9-1.1,1.9-1.1,3.3v22l-5.3-6.1
	c-0.9-0.9-1.8-1.3-3-1.3c-1.2,0-2.2,0.4-2.9,1.3C46.6,68.6,46.2,69.7,46.2,70.9z"/>
</svg>
