<?xml version="1.0" encoding="utf-8"?>
<!-- Generator: Adobe Illustrator 25.2.1, SVG Export Plug-In . SVG Version: 6.00 Build 0)  -->
<svg version="1.1" id="Layer_1" xmlns="http://www.w3.org/2000/svg" xmlns:xlink="http://www.w3.org/1999/xlink" x="0px" y="0px"
	 viewBox="0 0 147.9 114.4" style="enable-background:new 0 0 147.9 114.4;" xml:space="preserve">
<path d="M32.9,67.9c0-1,0.4-1.8,1.2-2.5c0.8-0.7,1.8-1,2.8-1h9.6c1.1,0,2,0.3,2.7,1c0.7,0.7,1.1,1.5,1.1,2.5c0,1-0.4,1.8-1.1,2.5
	c-0.7,0.7-1.6,1-2.7,1h-9.6c-1.1,0-2-0.3-2.8-1S32.9,68.9,32.9,67.9z M46.3,39.2c0-1,0.4-1.8,1.1-2.5c0.9-0.7,1.9-1,3-1
	c1,0,1.9,0.3,2.8,1l6.7,6.1c0.8,0.6,1.1,1.5,1.1,2.5c0,1-0.4,1.8-1.1,2.5c-0.8,0.7-1.7,1-2.8,1c-1.1,0-2.1-0.3-2.8-1l-6.9-5.9
	C46.7,41,46.3,40.2,46.3,39.2z M47.1,77.9c0-0.9,0.4-1.7,1.1-2.3c0.8-0.6,1.7-0.9,3-0.9h26.9c1.3,0,2.3,0.3,3,0.9
	c0.8,0.6,1.1,1.4,1.1,2.3c0,1.1-0.4,2-1.1,2.7c-0.8,0.7-1.7,1-3.1,1H51.2c-1.3,0-2.3-0.3-3-1C47.4,80,47.1,79,47.1,77.9z M51.7,90.1
	c0-0.9,0.4-1.7,1.3-2.5c0.8-0.7,1.8-1.1,2.8-1.1c1.2,0,2.2,0.4,3,1.1c0.8,0.7,1.1,1.6,1.1,2.5c0,1.2-0.4,2-1.1,2.7
	c-0.7,0.7-1.7,1-3,1c-1.1,0-2.1-0.3-2.9-1C52.2,92.1,51.7,91.2,51.7,90.1z M58.4,69.1v-0.3c0.1-5.2,2.2-9.8,6.2-13.6s8.8-6.2,14.6-7
	h0.2c0.9-0.2,2.1-0.2,3.6-0.2s2.7,0.1,3.6,0.2h0.2c5.7,0.8,10.6,3.2,14.6,7s6,8.4,6.2,13.6v0.3c0,0.7-0.4,1-1.1,1h-5.3
	c-0.6,0-0.9-0.1-1.2-0.4c-0.2-0.2-0.3-0.5-0.3-0.7c-0.2-3.9-1.9-7.1-5.1-9.8c-3.2-2.7-7-4-11.5-4s-8.3,1.3-11.5,4s-4.9,6-5.1,9.8
	c0,0.2-0.1,0.5-0.4,0.7c-0.2,0.2-0.7,0.4-1.2,0.4h-5.3C58.8,70.1,58.4,69.8,58.4,69.1z M63.1,90.1c0-1,0.4-1.8,1.1-2.5
	c0.8-0.7,1.7-1.1,3-1.1h18c1,0,2,0.4,2.8,1.1c0.8,0.7,1.3,1.6,1.3,2.5c0,1.1-0.4,2-1.3,2.7s-1.8,1-2.9,1h-18c-1.3,0-2.3-0.3-3-1
	C63.5,92.2,63.1,91.3,63.1,90.1z M78.9,35.8v-8.4c0-1,0.4-1.8,1.2-2.5s1.7-1,2.9-1c1.1,0,2,0.3,2.8,1s1.2,1.5,1.2,2.5v8.4
	c0,1-0.4,1.8-1.2,2.4c-0.8,0.6-1.7,1-2.8,1c-1.1,0-2.1-0.3-2.8-1C79.3,37.6,78.9,36.7,78.9,35.8z M85.3,77.9c0-0.9,0.4-1.6,1.3-2.2
	s1.8-1,2.9-1s2,0.3,2.9,1s1.3,1.4,1.3,2.2c0,1.1-0.4,2-1.3,2.7s-1.8,1-2.9,1s-2.1-0.3-2.9-1C85.7,79.8,85.3,79,85.3,77.9z
	 M92.5,90.1c0-1,0.4-1.8,1.1-2.5c0.8-0.7,1.8-1.1,3-1.1h8.8c1.2,0,2.2,0.4,3,1.1c0.8,0.7,1.1,1.6,1.1,2.5c0,1.2-0.4,2-1.1,2.7
	c-0.7,0.7-1.7,1-3,1h-8.8c-1.3,0-2.3-0.3-3-1C92.9,92.2,92.5,91.3,92.5,90.1z M96.7,77.9c0-0.9,0.4-1.6,1.3-2.2s1.8-1,2.8-1h14.5
	c1,0,1.9,0.3,2.5,0.9c0.7,0.6,1,1.4,1,2.3c0,1.1-0.3,2-1,2.7s-1.5,1-2.6,1h-14.5c-1.1,0-2-0.3-2.9-1C97.1,79.8,96.7,79,96.7,77.9z
	 M104.8,45.2c0-1,0.4-1.9,1.1-2.5l6.7-6.1c0.8-0.7,1.8-1,2.8-1c1.1,0,2,0.3,2.8,1c0.8,0.7,1.2,1.5,1.2,2.5s-0.4,1.9-1.1,2.5
	l-6.9,5.9c-0.8,0.7-1.8,1-2.8,1c-1.1,0-1.9-0.3-2.6-1C105.2,47,104.8,46.2,104.8,45.2z M115.5,67.9c0-1,0.4-1.8,1.1-2.5
	c0.8-0.7,1.7-1,2.7-1h9.5c1.1,0,2,0.4,2.8,1.1c0.8,0.7,1.2,1.5,1.2,2.5s-0.4,1.8-1.2,2.5c-0.8,0.7-1.7,1-2.8,1h-9.5
	c-1.1,0-2-0.3-2.7-1S115.5,68.9,115.5,67.9z"/>
</svg>
