<?xml version="1.0" encoding="utf-8"?>
<!-- Generator: Adobe Illustrator 25.2.1, SVG Export Plug-In . SVG Version: 6.00 Build 0)  -->
<svg version="1.1" id="Layer_1" xmlns="http://www.w3.org/2000/svg" xmlns:xlink="http://www.w3.org/1999/xlink" x="0px" y="0px"
	 viewBox="0 0 175.2 120.3" style="enable-background:new 0 0 175.2 120.3;" xml:space="preserve">
<path d="M40.5,58.8c0-1.1,0.4-2.1,1.2-2.9c0.8-0.8,1.8-1.1,2.8-1.1h9.6c1.1,0,2,0.4,2.7,1.2c0.7,0.8,1.1,1.7,1.1,2.9s-0.3,2.1-1,2.9
	c-0.7,0.8-1.6,1.2-2.7,1.2h-9.6c-1.1,0-2-0.4-2.8-1.2C40.9,60.9,40.5,60,40.5,58.8z M53.9,91.4c0-1.1,0.4-2,1.1-2.9l6.9-6.7
	c0.7-0.8,1.6-1.1,2.8-1.1c1.1,0,2.1,0.4,2.8,1.1c0.8,0.7,1.1,1.6,1.1,2.7c0,1.1-0.4,2.2-1.1,3l-6.7,6.7c-1.9,1.5-3.9,1.5-5.8,0
	C54.3,93.5,53.9,92.5,53.9,91.4z M53.9,26.3c0-1.1,0.4-2,1.1-2.9c0.9-0.8,1.9-1.2,3-1.2c1,0,2,0.4,2.8,1.1l6.7,6.9
	c0.8,0.7,1.1,1.6,1.1,2.8s-0.4,2.1-1.1,2.8c-0.8,0.8-1.7,1.1-2.8,1.1c-1.1,0-2.1-0.4-2.8-1.1l-6.9-6.7
	C54.3,28.4,53.9,27.5,53.9,26.3z M66,58.8c0-4.4,1.1-8.5,3.3-12.2c2.2-3.8,5.2-6.8,9-9c3.8-2.2,7.9-3.3,12.2-3.3
	c3.3,0,6.5,0.7,9.5,2c3,1.3,5.6,3.1,7.8,5.3c2.2,2.2,4,4.8,5.2,7.8c1.3,3,1.9,6.2,1.9,9.5c0,4.4-1.1,8.5-3.3,12.3
	c-2.2,3.8-5.2,6.7-8.9,8.9c-3.8,2.2-7.9,3.3-12.3,3.3c-4.4,0-8.5-1.1-12.3-3.3c-3.8-2.2-6.7-5.2-8.9-8.9C67.1,67.3,66,63.3,66,58.8z
	 M74,58.8c0,4.6,1.6,8.5,4.8,11.8c3.2,3.2,7.1,4.9,11.7,4.9c4.6,0,8.5-1.6,11.8-4.9c3.2-3.2,4.9-7.1,4.9-11.8
	c0-4.5-1.6-8.4-4.9-11.6c-3.2-3.2-7.2-4.8-11.8-4.8c-4.6,0-8.5,1.6-11.7,4.8C75.6,50.5,74,54.3,74,58.8z M86.5,95.4
	c0-1.1,0.4-2.1,1.2-2.8s1.7-1.1,2.8-1.1c1.1,0,2.1,0.4,2.9,1.1s1.1,1.7,1.1,2.8v9.4c0,1.1-0.4,2.1-1.2,2.9s-1.7,1.2-2.8,1.2
	c-1.1,0-2.1-0.4-2.8-1.2c-0.8-0.8-1.2-1.8-1.2-2.9C86.5,104.8,86.5,95.4,86.5,95.4z M86.5,22.5v-9.6c0-1.1,0.4-2,1.2-2.8
	s1.7-1.2,2.9-1.2s2,0.4,2.8,1.2c0.8,0.8,1.2,1.7,1.2,2.8v9.6c0,1.1-0.4,2-1.2,2.7s-1.7,1.1-2.8,1.1c-1.1,0-2.1-0.4-2.8-1.1
	C86.9,24.5,86.5,23.6,86.5,22.5z M112.5,84.5c0-1.1,0.4-2,1.1-2.6c0.7-0.8,1.6-1.1,2.6-1.1c1.1,0,2.1,0.4,2.8,1.1l6.9,6.7
	c0.8,0.8,1.1,1.8,1.1,2.9s-0.4,2-1.1,2.8c-1.9,1.5-3.8,1.5-5.6,0l-6.7-6.7C112.8,86.7,112.5,85.7,112.5,84.5z M112.5,33.1
	c0-1.2,0.4-2.1,1.1-2.8l6.7-6.9c0.8-0.8,1.7-1.1,2.8-1.1c1.1,0,2.1,0.4,2.8,1.2c0.8,0.8,1.2,1.7,1.2,2.8c0,1.2-0.4,2.2-1.1,2.9
	L119,36c-0.8,0.8-1.8,1.1-2.8,1.1c-1.1,0-1.9-0.4-2.6-1.1C112.8,35.2,112.5,34.3,112.5,33.1z M123.1,58.8c0-1.1,0.4-2.1,1.1-2.9
	c0.8-0.8,1.6-1.1,2.7-1.1h9.5c1.1,0,2,0.4,2.8,1.2c0.8,0.8,1.2,1.7,1.2,2.8c0,1.1-0.4,2-1.2,2.8c-0.8,0.8-1.7,1.2-2.8,1.2h-9.5
	c-1.1,0-2-0.4-2.7-1.2S123.1,60,123.1,58.8z"/>
</svg>
