<?xml version="1.0" encoding="utf-8"?>
<!-- Generator: Adobe Illustrator 25.2.1, SVG Export Plug-In . SVG Version: 6.00 Build 0)  -->
<svg version="1.1" id="Layer_1" xmlns="http://www.w3.org/2000/svg" xmlns:xlink="http://www.w3.org/1999/xlink" x="0px" y="0px"
	 viewBox="0 0 126.9 95" style="enable-background:new 0 0 126.9 95;" xml:space="preserve">
<path d="M11.6,75.7c0,0.8,0.3,1.6,1,2.2c0.6,0.5,1.4,1,2.3,1h21.7c1,0,1.7,0.3,2.6,1c0.7,0.7,1,1.5,1,2.5c0,1-0.4,1.8-1.1,2.5
	c-0.7,0.7-1.6,1.1-2.6,1.1s-1.7-0.4-2.6-1.1c-0.7-0.5-1.4-0.8-2.3-0.8c-0.9,0-1.6,0.3-2.3,0.8c-0.7,0.5-0.6,1.2-0.6,2.2
	s0.3,1.6,0.9,2.2c2,1.9,4.3,2.9,7,2.9s5-1,7-2.9c1.9-1.9,2.9-4.1,2.9-6.8c0-2.7-1-4.9-2.9-6.8s-4.3-2.9-7-2.9H14.9
	c-0.9,0-1.6,0.3-2.3,1C11.9,74.2,11.6,74.9,11.6,75.7z M11.6,64.9c0,0.8,0.3,1.5,1,2.1c0.6,0.5,1.4,0.8,2.3,0.8h40.6
	c2.7,0,5-1,7-2.9c1.9-1.9,2.9-4.1,2.9-6.8c0-2.7-1-4.9-2.9-6.8c-1.9-1.8-4.3-2.7-7-2.7c-2.9,0-5.1,1-7,2.7c-0.6,0.5-0.9,1.4-0.9,2.2
	s0.3,1.6,0.9,2.2s1.3,0.8,2.3,0.8c0.9,0,1.6-0.3,2.3-0.8c0.7-0.7,1.6-1,2.6-1s1.9,0.3,2.6,1s1.1,1.5,1.1,2.5s-0.4,1.8-1.1,2.5
	s-1.6,1.1-2.6,1.1H14.9c-0.9,0-1.6,0.3-2.3,1C11.9,63.4,11.6,64.1,11.6,64.9z M33.1,41.4c0-0.8,0.3-1.6,1-2.2
	c0.7-0.5,1.4-0.8,2.3-0.8h7.6c0.9,0,1.6,0.3,2.1,1c0.6,0.5,0.9,1.4,0.9,2.2s-0.4,1.4-1,1.9c-0.6,0.7-1.3,1-2.1,1h-7.6
	c-0.9,0-1.6-0.3-2.3-1C33.4,42.9,33.1,42.2,33.1,41.4z M43.6,16.4c0-0.8,0.3-1.5,0.9-2.2c0.7-0.5,1.6-0.8,2.4-0.8s1.6,0.3,2.1,0.8
	l5.3,5.3c0.6,0.5,0.9,1.2,0.9,2.2c0,0.8-0.3,1.6-0.9,2.2c-0.6,0.5-1.4,0.7-2.3,0.7c-0.9,0-1.6-0.3-2.1-0.8l-5.4-5.2
	C43.9,18,43.6,17.3,43.6,16.4z M53.1,40.9v-0.1c0-3.3,1-6.4,2.7-9.2s4.1-4.9,7-6.6c2.9-1.6,6.1-2.5,9.6-2.5c2.6,0,5,0.5,7.4,1.5
	s4.4,2.3,6.1,4.1c1.7,1.6,3.1,3.7,4.1,6c1,2.3,1.6,4.8,1.6,7.2c0,3.4-0.9,6.4-2.6,9.4s-4,5.2-7,6.8c-2.9,1.6-6.1,2.5-9.6,2.6h-0.9
	c-0.3,0-0.4-0.1-0.6-0.3c-0.1-0.1-0.3-0.4-0.3-0.7v-4.4c0-0.4,0.3-0.7,0.9-0.7h0.9c3.6,0,6.6-1.2,9.1-3.8c2.6-2.5,3.9-5.5,3.9-9
	c0-3.4-1.3-6.4-3.9-8.9s-5.6-3.7-9.3-3.7c-3.4,0-6.6,1.1-9,3.6c-2.6,2.3-3.9,5.2-4,8.5c0,0.3-0.1,0.4-0.3,0.5
	c-0.3,0.3-0.6,0.3-1,0.3h-4.1C53.4,41.8,53.1,41.5,53.1,40.9z M69.2,76.5v-7.1c0-0.8,0.3-1.6,0.9-2.2c0.6-0.5,1.4-0.8,2.3-0.8
	c0.9,0,1.7,0.3,2.3,0.8c0.6,0.5,0.9,1.2,0.9,2.2v7.1c0,0.8-0.3,1.6-0.9,2.2c-0.6,0.5-1.4,1-2.3,1c-0.9,0-1.6-0.3-2.3-1
	C69.5,78.2,69.2,77.4,69.2,76.5z M69.2,13.5V6.1c0-0.8,0.3-1.5,0.9-2.2c0.6-0.5,1.4-1,2.3-1c0.9,0,1.6,0.3,2.3,1
	c0.6,0.5,0.9,1.4,0.9,2.2v7.4c0,0.8-0.3,1.5-0.9,2.1s-1.4,0.8-2.3,0.8c-0.9,0-1.6-0.3-2.3-0.8C69.5,15,69.2,14.3,69.2,13.5z
	 M89.6,61c0-0.8,0.3-1.5,0.9-2.1c0.6-0.5,1.3-0.8,2.1-0.8c0.9,0,1.6,0.3,2.3,0.8l5.4,5.1c0.6,0.5,0.9,1.4,0.9,2.2
	c0,0.8-0.3,1.5-0.9,2.2c-1.4,1.1-3,1.1-4.4,0l-5.3-5.2C89.9,62.7,89.6,61.9,89.6,61z M89.6,21.6c0-1,0.3-1.6,0.9-2.2l5.3-5.3
	c0.7-0.5,1.4-0.8,2.1-0.8c0.9,0,1.6,0.3,2.3,1c0.6,0.5,0.9,1.4,0.9,2.2c0,1-0.3,1.6-0.9,2.2l-5.4,5.2c-0.7,0.5-1.4,0.8-2.3,0.8
	s-1.6-0.3-2.1-0.8C89.9,23.2,89.6,22.5,89.6,21.6z M97.9,41.4c0-0.8,0.3-1.6,0.9-2.2c0.6-0.5,1.3-0.8,2.1-0.8h7.4
	c0.9,0,1.6,0.3,2.3,1c0.7,0.5,1,1.4,1,2.2s-0.3,1.5-1,2.2c-0.7,0.5-1.4,1-2.3,1h-7.4c-0.9,0-1.6-0.3-2.1-1
	C98.2,42.9,97.9,42.2,97.9,41.4z"/>
</svg>
