<?xml version="1.0" encoding="utf-8"?>
<!-- Generator: Adobe Illustrator 25.2.1, SVG Export Plug-In . SVG Version: 6.00 Build 0)  -->
<svg version="1.1" id="Layer_1" xmlns="http://www.w3.org/2000/svg" xmlns:xlink="http://www.w3.org/1999/xlink" x="0px" y="0px"
	 viewBox="0 0 129.3 106.1" style="enable-background:new 0 0 129.3 106.1;" xml:space="preserve">
<path d="M21,59.7c0,3.9,1.2,7.5,3.7,10.6s5.7,5.2,9.5,6.2l-2.4,6c-0.2,0.5,0,0.8,0.5,0.8h7.9l-5.3,14.8H36l16.1-20
	c0.1-0.1,0.1-0.3,0.1-0.5c-0.1-0.2-0.3-0.2-0.5-0.2h-8.1L52.8,61c0.3-0.5,0.1-0.8-0.5-0.8h-11c-0.3,0-0.6,0.2-0.9,0.5l-4,10.2
	c-2.7-0.6-4.9-2-6.6-4.1c-1.7-2.1-2.6-4.4-2.6-7.1c0-3,1-5.5,3.1-7.7c2.1-2.2,4.7-3.4,7.8-3.8l1.9-0.1c0.4,0,0.7-0.2,0.8-0.5
	l0.3-2.1c0.4-3.8,2.1-7,5.1-9.6c3-2.6,6.5-3.9,10.6-3.9c4,0,7.5,1.3,10.6,3.9c3,2.6,4.8,5.8,5.2,9.6l0.3,2.1c0,0.4,0.2,0.6,0.7,0.6
	h6c3.3,0,6.1,1.1,8.5,3.4s3.6,4.9,3.6,8.1c0,3.1-1.1,5.7-3.3,8c-2.2,2.3-4.9,3.5-8.1,3.6c-0.5,0-0.7,0.2-0.7,0.6v4.7
	c0,0.4,0.3,0.6,0.7,0.6c3.3-0.1,6.3-0.9,9-2.5c2.7-1.6,4.8-3.7,6.4-6.4s2.4-5.5,2.4-8.6c0-2.6-0.5-4.9-1.6-7.1
	c2.8-3.4,4.2-7.3,4.2-11.6c0-3.3-0.9-6.5-2.6-9.3s-4.1-5.1-7.1-6.8c-3-1.7-6.3-2.5-9.8-2.5c-2.7,0-5.3,0.5-7.8,1.6
	c-2.5,1.1-4.7,2.5-6.5,4.4c-3-1.5-6.3-2.3-10.1-2.3c-5.3,0-9.9,1.6-14,4.7s-6.7,7.1-7.8,11.9c-4.1,0.9-7.5,3-10.1,6.1
	C22.3,52,21,55.7,21,59.7z M52.1,16.4c0,0.8,0.3,1.5,0.9,2.1l2.4,2.3c0.6,0.6,1.3,0.8,2,0.9c0.8,0.1,1.5-0.1,2.3-0.8
	c0.7-0.6,1.1-1.4,1.1-2.3c0-0.8-0.3-1.5-0.9-2.1l-2.3-2.3c-0.6-0.6-1.3-0.8-2.2-0.8c-0.9,0-1.7,0.3-2.3,0.8
	C52.5,14.9,52.1,15.6,52.1,16.4z M56.5,81.2c0,0.8,0.3,1.6,0.9,2.1c0.6,0.6,1.3,0.8,2.1,0.8c0.9,0,1.6-0.3,2.3-0.8
	c0.6-0.6,0.9-1.3,0.9-2.1c0-0.8-0.3-1.6-0.9-2.2c-0.6-0.6-1.4-0.9-2.3-0.9c-0.8,0-1.5,0.3-2.1,0.9C56.8,79.6,56.5,80.3,56.5,81.2z
	 M56.5,68.3c0,0.8,0.3,1.5,0.9,2c0.6,0.6,1.3,0.8,2.1,0.8c0.9,0,1.7-0.3,2.3-0.8c0.6-0.5,0.9-1.2,0.9-2.1c0-0.8-0.3-1.5-0.9-2.1
	c-0.6-0.6-1.4-0.9-2.3-0.9c-0.9,0-1.6,0.3-2.1,0.9C56.8,66.8,56.5,67.5,56.5,68.3z M56.5,94.1c0,0.8,0.3,1.4,0.9,2
	c0.6,0.6,1.3,0.9,2.1,0.9c0.9,0,1.6-0.3,2.3-0.8c0.6-0.6,0.9-1.2,0.9-2.1s-0.3-1.6-0.9-2.2c-0.6-0.6-1.4-0.9-2.3-0.9
	c-0.8,0-1.5,0.3-2.1,0.9C56.8,92.5,56.5,93.3,56.5,94.1z M68.4,74.3c0,0.8,0.3,1.6,0.9,2.1c0.6,0.6,1.3,0.9,2.2,0.9
	c0.9,0,1.6-0.3,2.2-0.9s0.9-1.3,0.9-2.1c0-0.8-0.3-1.5-0.9-2c-0.6-0.6-1.3-0.8-2.2-0.8c-0.9,0-1.6,0.3-2.2,0.8
	C68.7,72.8,68.4,73.5,68.4,74.3z M68.4,87.2c0,0.8,0.3,1.5,0.9,2c0.6,0.6,1.3,0.8,2.2,0.8s1.6-0.3,2.2-0.8c0.6-0.6,0.9-1.2,0.9-2.1
	c0-0.8-0.3-1.5-0.9-2.1c-0.6-0.6-1.3-0.8-2.2-0.8s-1.6,0.3-2.2,0.8C68.7,85.6,68.4,86.3,68.4,87.2z M72.1,32
	c2.5-2.3,5.5-3.4,9.1-3.4c3.6,0,6.7,1.2,9.3,3.6c2.6,2.4,3.8,5.4,3.8,8.8c0,2.3-0.6,4.4-1.7,6.4c-3.6-3.4-7.9-5.1-13-5.1h-1.1
	C77.4,38.2,75.3,34.7,72.1,32z M78.1,13.4c0,0.8,0.3,1.6,0.9,2.2c0.6,0.6,1.4,0.9,2.2,0.9c0.9,0,1.6-0.3,2.2-0.9s0.9-1.3,0.9-2.2
	V6.2c0-0.8-0.3-1.6-0.9-2.2c-0.6-0.6-1.3-0.9-2.2-0.9c-0.9,0-1.6,0.3-2.2,0.9c-0.6,0.6-0.9,1.3-0.9,2.2V13.4z M98.7,21.5
	c0,0.8,0.3,1.6,0.9,2.1c0.5,0.6,1.2,0.8,2,0.9s1.6-0.2,2.3-0.9l5.3-5.1c0.7-0.6,1-1.3,1-2.1s-0.3-1.6-1-2.1
	c-0.6-0.6-1.3-0.9-2.2-0.9c-0.9,0-1.6,0.3-2.1,0.9l-5.3,5.1C99,19.9,98.7,20.6,98.7,21.5z M101.6,63.5c0,0.8,0.3,1.5,0.9,2.1
	l2.4,2.2c0.7,0.6,1.4,0.9,2.3,0.9l0.1,0.1c0.8,0,1.5-0.3,2-1c0.7-0.6,1-1.3,1-2.1c0-0.8-0.3-1.5-1-2.2l-2.3-2.2
	c-0.7-0.6-1.4-1-2.3-1c-0.9,0-1.6,0.3-2.2,0.9C101.9,62,101.6,62.7,101.6,63.5z M107,41c0,0.8,0.3,1.6,1,2.1
	c0.6,0.6,1.3,0.9,2.2,0.9h7.6c0.9,0,1.6-0.3,2.3-0.9s0.9-1.3,0.9-2.1c0-0.8-0.3-1.6-0.9-2.1s-1.4-0.8-2.3-0.8h-7.6
	c-0.9,0-1.7,0.3-2.3,0.8C107.3,39.5,107,40.2,107,41z"/>
</svg>
