<?xml version="1.0" encoding="utf-8"?>
<!-- Generator: Adobe Illustrator 25.2.1, SVG Export Plug-In . SVG Version: 6.00 Build 0)  -->
<svg version="1.1" id="Layer_1" xmlns="http://www.w3.org/2000/svg" xmlns:xlink="http://www.w3.org/1999/xlink" x="0px" y="0px"
	 viewBox="0 0 158 112" style="enable-background:new 0 0 158 112;" xml:space="preserve">
<path d="M30.2,63.9c0,5,1.7,9.2,5.2,12.8S43,82.2,48,82.4c0.4,0,0.6-0.2,0.6-0.6v-5c0-0.4-0.2-0.6-0.6-0.6c-3.2-0.1-5.9-1.5-8.1-3.8
	c-2.2-2.4-3.3-5.2-3.3-8.4c0-3.1,1-5.7,3.2-8.1c2.1-2.3,4.7-3.6,7.8-4l2-0.2c0.5,0,0.7-0.2,0.7-0.6l0.3-2c0.4-4,2.1-7.4,5.1-10.1
	s6.5-4.1,10.6-4.1s7.6,1.4,10.6,4.1c3,2.7,4.7,6.1,5.2,10.1l0.3,2.1c0,0.4,0.2,0.7,0.6,0.7h6c3.3,0,6.1,1.2,8.5,3.6
	c2.4,2.4,3.6,5.2,3.6,8.5c0,3.2-1.1,6-3.3,8.4c-2.2,2.4-4.9,3.7-8.1,3.8c-0.4,0-0.7,0.2-0.7,0.6v5c0,0.4,0.2,0.6,0.7,0.6
	c4.9-0.1,9.1-2,12.6-5.6c3.4-3.6,5.2-7.9,5.2-12.9c0-2.7-0.5-5.2-1.6-7.5c2.9-3.6,4.3-7.7,4.3-12.3c0-3.5-0.9-6.8-2.6-9.8
	c-1.7-3-4.1-5.4-7.1-7.2s-6.2-2.6-9.7-2.6c-5.8,0-10.6,2.2-14.4,6.5c-3-1.6-6.4-2.5-10-2.5c-5.2,0-9.9,1.6-13.9,4.9
	s-6.6,7.5-7.8,12.5c-4.1,1-7.5,3.1-10.2,6.5C31.5,55.8,30.2,59.6,30.2,63.9z M50.2,89.5c0,0.6,0.2,1.2,0.6,1.8c0.4,0.6,1,1,1.8,1.2
	c0.4,0.1,0.7,0.1,1,0.1c1.4,0,2.4-0.8,2.9-2.4l5.9-21.9c0.3-0.9,0.1-1.7-0.3-2.5c-0.4-0.8-1.1-1.2-2-1.4c-0.8-0.3-1.6-0.2-2.3,0.3
	c-0.7,0.4-1.3,1-1.5,1.9l-5.9,22C50.3,89.1,50.2,89.4,50.2,89.5z M59.9,100.9c0,0.7,0.2,1.3,0.6,1.9c0.4,0.6,1,1,1.9,1.1
	c0.4,0.1,0.7,0.1,1,0.1c0.6,0,1.1-0.2,1.7-0.6c0.5-0.4,0.9-1,1-1.8l8.9-33.3c0.2-0.9,0.1-1.7-0.3-2.4c-0.4-0.7-1-1.2-1.9-1.5
	c-0.9-0.3-1.7-0.2-2.4,0.3c-0.7,0.4-1.3,1-1.5,1.9L60,100C59.9,100.6,59.9,100.9,59.9,100.9z M61.5,18.1c0,0.9,0.3,1.6,0.9,2.3
	l2.4,2.5c0.7,0.6,1.5,0.8,2.3,0.8c0.8,0,1.5-0.3,2.1-0.9c0.6-0.6,1-1.3,1-2.2s-0.3-1.7-0.9-2.4l-2.4-2.4c-0.7-0.6-1.4-0.9-2.2-0.9
	c-0.9,0-1.7,0.3-2.3,1C61.8,16.4,61.5,17.2,61.5,18.1z M75.3,89.5c0,0.6,0.2,1.2,0.6,1.8s1,1,1.7,1.2c0.4,0.1,0.7,0.1,0.9,0.1
	c0.6,0,1.3-0.2,1.8-0.6c0.6-0.4,0.9-1,1.1-1.8l5.9-21.9c0.2-0.9,0.1-1.7-0.3-2.4c-0.4-0.7-1-1.2-1.9-1.5c-0.9-0.3-1.7-0.2-2.4,0.3
	c-0.7,0.4-1.2,1-1.4,1.9l-5.9,22C75.4,89.2,75.3,89.5,75.3,89.5z M81.3,34.6c2.6-2.5,5.7-3.7,9.2-3.7c3.6,0,6.7,1.3,9.3,3.9
	c2.6,2.6,3.8,5.7,3.8,9.4c0,2.3-0.6,4.6-1.9,6.9c-3.6-3.6-7.9-5.4-12.9-5.4h-1.2C86.5,41.2,84.4,37.6,81.3,34.6z M87.3,15
	c0,0.9,0.3,1.6,0.9,2.2c0.6,0.6,1.4,0.9,2.3,0.9c0.9,0,1.6-0.3,2.2-0.9c0.6-0.6,0.9-1.3,0.9-2.2V7.4c0-1-0.3-1.8-0.9-2.3
	c-0.6-0.6-1.3-0.9-2.2-0.9c-0.9,0-1.7,0.3-2.3,0.9c-0.6,0.6-0.9,1.4-0.9,2.3L87.3,15L87.3,15z M107.8,23.5c0,0.9,0.3,1.6,1,2.2
	c0.5,0.6,1.2,0.9,2,1c0.9,0.1,1.6-0.3,2.3-1l5.3-5.3c0.7-0.6,1-1.4,1-2.3c0-0.9-0.3-1.7-0.9-2.3c-0.6-0.6-1.4-0.9-2.3-0.9
	c-0.8,0-1.5,0.3-2.1,0.9l-5.3,5.4C108.2,21.8,107.8,22.6,107.8,23.5z M110.8,67.7c0,0.9,0.3,1.7,0.9,2.3l2.4,2.3
	c0.7,0.5,1.4,0.8,2.2,0.8l0.1,0.1c0.9,0,1.6-0.3,2.1-0.9c0.6-0.6,0.9-1.4,0.9-2.3s-0.3-1.6-1-2.2l-2.3-2.5c-0.7-0.6-1.4-0.9-2.3-0.9
	c-0.9,0-1.6,0.3-2.2,0.9C111.1,66.1,110.8,66.8,110.8,67.7z M116.2,44.1c0,0.9,0.3,1.6,1,2.2c0.7,0.7,1.4,1,2.3,1h7.5
	c0.9,0,1.6-0.3,2.3-0.9c0.6-0.6,0.9-1.4,0.9-2.2c0-0.9-0.3-1.6-0.9-2.3s-1.4-1-2.3-1h-7.5c-0.9,0-1.6,0.3-2.3,1
	C116.5,42.5,116.2,43.2,116.2,44.1z"/>
</svg>
