<?xml version="1.0" encoding="utf-8"?>
<!-- Generator: Adobe Illustrator 25.2.1, SVG Export Plug-In . SVG Version: 6.00 Build 0)  -->
<svg version="1.1" id="Layer_1" xmlns="http://www.w3.org/2000/svg" xmlns:xlink="http://www.w3.org/1999/xlink" x="0px" y="0px"
	 viewBox="0 0 159.1 117.3" style="enable-background:new 0 0 159.1 117.3;" xml:space="preserve">
<path d="M34,64.5c0,3.3,0.8,6.3,2.4,9.1c1.6,2.8,3.7,5.1,6.5,6.8c2.7,1.7,5.7,2.6,8.9,2.7c0.4,0,0.6-0.2,0.6-0.6v-5
	c0-0.5-0.2-0.7-0.6-0.7c-3.2-0.2-5.9-1.4-8.1-3.9s-3.4-5.2-3.4-8.4c0-3.1,1-5.8,3.2-8.2c2.1-2.3,4.7-3.7,7.8-4l2-0.2
	c0.4,0,0.7-0.2,0.7-0.7l0.3-1.9c0.4-4.1,2.1-7.6,5.1-10.3c3-2.8,6.5-4.1,10.6-4.1c4.1,0,7.6,1.4,10.6,4.1c3.1,2.8,4.8,6.2,5.1,10.2
	l0.3,2.2c0,0.4,0.2,0.6,0.6,0.6h6c3.4,0,6.2,1.2,8.6,3.6c2.4,2.4,3.6,5.3,3.6,8.7c0,3.2-1.1,5.9-3.4,8.4c-2.2,2.4-5,3.7-8.1,3.9
	c-0.4,0-0.7,0.2-0.7,0.7v5c0,0.4,0.2,0.6,0.7,0.6c5-0.2,9.1-2,12.6-5.7s5.2-7.9,5.2-12.9c0-2.9-0.5-5.4-1.6-7.7
	c2.8-3.5,4.3-7.7,4.3-12.4c0-3.6-0.9-6.8-2.6-9.9c-1.8-3-4.1-5.4-7.1-7.2s-6.3-2.6-9.8-2.6c-5.7,0-10.5,2.2-14.4,6.5
	c-3-1.7-6.4-2.5-10-2.5c-5.3,0-9.9,1.7-13.9,5c-4.1,3.3-6.6,7.5-7.8,12.6c-4.2,1.1-7.6,3.3-10.2,6.6C35.3,56.2,34,60.1,34,64.5z
	 M54.4,93.5c0,0.8,0.3,1.5,0.9,2.2c0.7,0.6,1.4,0.9,2.2,0.9c0.9,0,1.6-0.3,2.2-0.9c0.6-0.6,0.9-1.3,0.9-2.2c0-0.9-0.3-1.6-0.9-2.2
	c-0.6-0.6-1.3-0.9-2.2-0.9s-1.6,0.3-2.2,0.9C54.7,91.8,54.4,92.6,54.4,93.5z M57.6,79.8c0,0.9,0.3,1.7,0.9,2.3
	c0.6,0.6,1.3,0.9,2.2,0.9c0.9,0,1.6-0.3,2.2-0.9c0.6-0.6,0.9-1.4,0.9-2.3c0-0.9-0.3-1.6-0.9-2.2c-0.6-0.6-1.3-0.9-2.2-0.9
	c-0.9,0-1.6,0.3-2.2,0.9C57.9,78.2,57.6,79,57.6,79.8z M64.7,100.9c0,0.8,0.3,1.6,0.9,2.2c0.6,0.6,1.3,0.9,2.2,0.9
	c0.9,0,1.6-0.3,2.2-0.9c0.6-0.6,0.9-1.3,0.9-2.2s-0.3-1.7-0.9-2.3c-0.6-0.6-1.4-0.9-2.2-0.9c-0.8,0-1.5,0.3-2.2,0.9
	C65,99.3,64.7,100,64.7,100.9z M65.3,18.1c0,0.9,0.3,1.7,0.9,2.2l2.5,2.5c0.6,0.6,1.3,0.9,2,0.9c0.8,0.1,1.5-0.2,2.3-0.8
	s1.1-1.5,1.1-2.4c0-0.9-0.3-1.7-0.9-2.4l-2.4-2.3c-0.6-0.6-1.3-0.9-2.2-0.9c-0.9,0-1.7,0.3-2.3,0.9C65.6,16.5,65.3,17.2,65.3,18.1z
	 M67.9,87c0,0.8,0.3,1.6,0.9,2.3c0.6,0.6,1.3,0.9,2.1,0.9c0.9,0,1.6-0.3,2.3-0.9c0.6-0.6,0.9-1.4,0.9-2.3c0-0.9-0.3-1.6-0.9-2.3
	s-1.4-0.9-2.3-0.9c-0.8,0-1.6,0.3-2.2,0.9S67.9,86.2,67.9,87z M69.5,73.4c0,0.9,0.3,1.6,0.9,2.2c0.6,0.6,1.3,0.9,2.2,0.9
	c0.9,0,1.6-0.3,2.2-0.9c0.6-0.6,0.9-1.3,0.9-2.2c0-0.9-0.3-1.6-0.9-2.2c-0.6-0.6-1.4-0.9-2.2-0.9c-0.9,0-1.6,0.3-2.2,0.9
	C69.8,71.8,69.5,72.6,69.5,73.4z M78.3,93.5c0,0.8,0.3,1.5,0.9,2.2c0.6,0.6,1.4,0.9,2.2,0.9c0.9,0,1.6-0.3,2.2-0.9
	c0.6-0.6,0.9-1.3,0.9-2.2c0-0.9-0.3-1.6-0.9-2.2c-0.6-0.6-1.3-0.9-2.2-0.9s-1.6,0.3-2.2,0.9C78.6,91.9,78.3,92.6,78.3,93.5z
	 M81.5,79.8c0,0.9,0.3,1.7,0.9,2.3c0.6,0.6,1.3,0.9,2.2,0.9s1.6-0.3,2.2-0.9c0.6-0.6,0.9-1.4,0.9-2.3c0-0.9-0.3-1.6-0.9-2.2
	s-1.3-0.9-2.2-0.9S83,77,82.4,77.6C81.8,78.2,81.5,79,81.5,79.8z M85.1,34.7c2.6-2.5,5.6-3.7,9.2-3.7c3.6,0,6.7,1.3,9.2,3.9
	c2.6,2.6,3.8,5.8,3.8,9.4c0,2.3-0.6,4.7-1.9,7c-3.5-3.6-7.9-5.4-12.9-5.4h-1.2C90.3,41.4,88.2,37.7,85.1,34.7z M91.1,15
	c0,0.9,0.3,1.6,0.9,2.2c0.6,0.6,1.4,0.9,2.3,0.9c0.9,0,1.6-0.3,2.2-0.9c0.6-0.6,0.9-1.3,0.9-2.2V7.2c0-0.9-0.3-1.7-0.9-2.3
	S95.2,4,94.3,4s-1.6,0.3-2.2,1c-0.6,0.6-1,1.4-1,2.3L91.1,15L91.1,15z M111.7,23.5c0,0.9,0.3,1.6,0.9,2.2c0.6,0.6,1.3,0.9,2.1,1
	c0.8,0.1,1.6-0.3,2.3-1l5.3-5.4c0.7-0.7,1-1.4,1-2.3c0-0.9-0.3-1.7-1-2.3c-0.6-0.6-1.4-0.9-2.2-0.9c-0.8,0-1.5,0.3-2.2,0.9l-5.3,5.5
	C112,21.9,111.7,22.6,111.7,23.5z M114.6,68.2c0,0.9,0.3,1.7,0.9,2.3l2.4,2.4c0.9,0.6,1.7,0.9,2.4,0.9c0.8,0,1.5-0.3,2.1-1
	c0.6-0.6,0.9-1.4,0.9-2.3c0-0.9-0.3-1.6-1-2.2l-2.3-2.5c-0.7-0.6-1.4-0.9-2.3-0.9s-1.6,0.3-2.2,0.9
	C114.9,66.5,114.6,67.3,114.6,68.2z M120,44.3c0,0.9,0.3,1.6,1,2.2c0.6,0.7,1.4,1,2.3,1h7.5c0.9,0,1.6-0.3,2.2-0.9
	c0.6-0.6,0.9-1.4,0.9-2.3s-0.3-1.7-0.9-2.3c-0.6-0.6-1.4-0.9-2.2-0.9h-7.5c-0.9,0-1.6,0.3-2.3,0.9C120.3,42.7,120,43.4,120,44.3z"/>
</svg>
