<?xml version="1.0" encoding="utf-8"?>
<!-- Generator: Adobe Illustrator 25.2.1, SVG Export Plug-In . SVG Version: 6.00 Build 0)  -->
<svg version="1.1" id="Layer_1" xmlns="http://www.w3.org/2000/svg" xmlns:xlink="http://www.w3.org/1999/xlink" x="0px" y="0px"
	 viewBox="0 0 118.2 98.8" style="enable-background:new 0 0 118.2 98.8;" xml:space="preserve">
<path d="M6.9,52.4c0,1.1,0.4,2,1.2,2.7c0.8,0.7,1.8,1.1,3,1.1h7.1c1.1,0,2.1-0.4,2.9-1.1c0.8-0.7,1.2-1.6,1.2-2.7
	c0-1.2-0.4-2.2-1.2-2.9c-0.8-0.7-1.8-1.1-2.9-1.1h-7.1c-1.2,0-2.2,0.4-3,1.1C7.3,50.2,6.9,51.2,6.9,52.4z M14.3,77.7
	c0,4,1.5,7.4,4.4,10.3s6.5,4.3,10.5,4.3h28.8c4.1,0,7.6-1.4,10.4-4.3c2.9-2.9,4.4-6.3,4.4-10.4c0-2-0.3-3.6-0.9-5
	c3.5-2.2,6.3-5.1,8.3-8.7c2-3.6,3.1-7.5,3.1-11.6c0-3.3-0.7-6.5-2-9.5c-1.3-3-3.1-5.6-5.4-7.8s-4.9-3.9-8-5.2c-3.1-1.3-6.3-2-9.7-2
	c-4.6,0-8.8,1.1-12.7,3.3s-6.9,5.2-9.1,8.9c-2.2,3.8-3.3,7.9-3.3,12.3v1.4c-4.2,2.3-7,5.7-8.3,10.2c-3.2,1-5.7,2.7-7.6,5.2
	C15.3,71.6,14.3,74.5,14.3,77.7z M20.9,19.7c0,1.1,0.4,2.1,1.1,2.7l6.8,6.9c2,1.5,3.9,1.5,5.9,0c0.8-0.8,1.2-1.7,1.2-2.9
	c0-1.1-0.4-2-1.2-2.9l-6.9-6.8c-0.9-0.8-1.9-1.2-2.9-1.2c-1.2,0-2.1,0.4-2.9,1.1C21.2,17.7,20.9,18.6,20.9,19.7z M22.7,77.7
	c0-1.7,0.5-3.2,1.7-4.4c1.1-1.2,2.6-1.9,4.3-2.1l2.6-0.3c0.5,0,0.8-0.3,0.8-0.9l0.4-2.3c0.3-2.4,1.3-4.3,3.1-5.9
	c1.8-1.6,3.8-2.4,6.2-2.4c2.4,0,4.6,0.8,6.3,2.4c1.8,1.6,2.9,3.6,3.1,5.9l0.3,2.7c0.3,0.6,0.6,0.9,1,0.9h5.5c1.8,0,3.4,0.7,4.7,1.9
	c1.3,1.3,2,2.8,2,4.6c0,1.8-0.7,3.4-2,4.7s-2.9,2-4.7,2H29.3c-1.9,0-3.5-0.7-4.7-2C23.3,81.1,22.7,79.5,22.7,77.7z M41.2,51.5
	c0.3-4.5,2.1-8.2,5.3-11.3c3.2-3,7.2-4.6,11.7-4.6c4.7,0,8.6,1.6,11.9,4.9c3.3,3.2,4.9,7.2,4.9,11.8c0,2.9-0.7,5.5-2.1,8
	c-1.4,2.5-3.4,4.4-5.8,5.9c-2.5-2-5.3-3-8.5-3c-1.2-3.6-3.4-6.4-6.5-8.6s-6.5-3.2-10.4-3.2C41.7,51.5,41.2,51.5,41.2,51.5z
	 M54.2,15.7c0,1.1,0.4,2.1,1.2,2.9c0.8,0.8,1.8,1.2,2.9,1.2c1.2,0,2.1-0.4,2.9-1.2c0.8-0.8,1.2-1.7,1.2-2.9V6.2c0-1.1-0.4-2-1.2-2.7
	s-1.8-1.1-2.9-1.1c-1.1,0-2.1,0.4-2.9,1.1c-0.8,0.7-1.2,1.6-1.2,2.7C54.2,6.2,54.2,15.7,54.2,15.7z M80.7,78.1c0,1.1,0.4,2,1.1,2.9
	l6.9,6.6c1.8,1.7,3.7,1.7,5.9,0c0.8-0.7,1.1-1.6,1.1-2.8c0-1.1-0.4-2-1.1-2.7l-7.1-6.8c-0.8-0.7-1.7-1-2.9-1c-1.2,0-2.1,0.4-2.9,1.1
	C81.1,76,80.7,77,80.7,78.1z M80.7,26.5c0,1.1,0.4,2.1,1.1,2.9c0.8,0.7,1.7,1.1,2.9,1.1c1.1,0,2.1-0.4,2.9-1.1l7.1-6.9
	c0.8-0.7,1.1-1.6,1.1-2.7c0-1.1-0.4-2.1-1.2-2.8s-1.8-1.1-2.9-1.1c-1.1,0-2.1,0.4-2.9,1.2l-6.9,6.7C81.1,24.4,80.7,25.3,80.7,26.5z
	 M91.5,52.4c0,1.1,0.4,2,1.2,2.7c0.8,0.7,1.8,1.1,3,1.1h7.1c1.1,0,2.1-0.4,2.9-1.1c0.8-0.7,1.2-1.6,1.2-2.7c0-1.2-0.4-2.2-1.2-2.9
	c-0.8-0.7-1.8-1.1-2.9-1.1h-7.1c-1.2,0-2.2,0.4-3,1.1C91.9,50.2,91.5,51.2,91.5,52.4z"/>
</svg>
