<?xml version="1.0" encoding="utf-8"?>
<!-- Generator: Adobe Illustrator 25.2.1, SVG Export Plug-In . SVG Version: 6.00 Build 0)  -->
<svg version="1.1" id="Layer_1" xmlns="http://www.w3.org/2000/svg" xmlns:xlink="http://www.w3.org/1999/xlink" x="0px" y="0px"
	 viewBox="0 0 126 110.5" style="enable-background:new 0 0 126 110.5;" xml:space="preserve">
<path d="M14.5,65.9c0,5,1.7,9.3,5.2,12.9s7.7,5.5,12.6,5.7c0.4,0,0.7-0.2,0.7-0.6v-5c0-0.4-0.2-0.7-0.7-0.7
	c-3.2-0.1-5.9-1.5-8.1-3.9c-2.2-2.4-3.3-5.2-3.3-8.5c0-3.1,1-5.8,3.1-8.1s4.7-3.6,7.8-4l2-0.1c0.5,0,0.7-0.2,0.7-0.7l0.3-2.1
	c0.4-4,2.1-7.4,5.1-10.1c3-2.7,6.5-4.1,10.6-4.1c4,0,7.5,1.3,10.6,4.1s4.8,6.1,5.2,10.1l0.3,2.2c0,0.4,0.2,0.7,0.6,0.7h6
	c3.3,0,6.2,1.2,8.6,3.6c2.4,2.4,3.6,5.2,3.6,8.5c0,3.3-1.1,6.1-3.4,8.5c-2.3,2.4-5,3.7-8.1,3.9c-0.5,0-0.7,0.2-0.7,0.7v5
	c0,0.4,0.3,0.6,0.7,0.6c5-0.1,9.1-2.1,12.5-5.7c3.4-3.6,5.1-7.9,5.1-12.9c0-2.8-0.5-5.3-1.5-7.5c2.9-3.6,4.4-7.7,4.4-12.5
	c0-3.5-0.9-6.8-2.6-9.8c-1.8-3-4.1-5.4-7.1-7.2c-3-1.8-6.2-2.7-9.7-2.7c-5.8,0-10.6,2.2-14.4,6.5c-3-1.6-6.3-2.5-10-2.5
	c-5.2,0-9.9,1.6-13.9,4.9s-6.7,7.5-7.8,12.6c-4.1,1-7.5,3.1-10.1,6.5C15.9,57.7,14.5,61.6,14.5,65.9z M34.3,92.3
	c0.4,0.8,0.9,1.4,1.7,1.7c0.7,0.4,1.5,0.4,2.3,0.1c0.8-0.3,1.4-0.9,1.7-1.7c0.4-0.8,0.4-1.6,0.1-2.4c-0.3-0.8-0.9-1.3-1.7-1.6
	c-0.7-0.4-1.5-0.4-2.3-0.1c-0.8,0.3-1.4,0.9-1.7,1.8C34,90.6,33.9,91.4,34.3,92.3z M36.6,81.7c0,0.5,0.1,1,0.3,1.4
	c0.7,1.2,1.8,1.7,3.3,1.7c1.2,0,2-0.8,2.6-2.4l3.8-12.1c0.3-0.9,0.2-1.8-0.3-2.5c-0.5-0.7-1.1-1.2-2-1.4c-0.8-0.2-1.6-0.1-2.3,0.3
	c-0.7,0.4-1.3,1-1.5,1.9l-3.8,12.1C36.7,81,36.6,81.4,36.6,81.7z M43.6,102.7c0,0.5,0.1,0.9,0.2,1.1c0.3,0.8,0.9,1.4,1.7,1.7
	c0.3,0.2,0.8,0.3,1.3,0.3c0.2,0,0.6-0.1,1.1-0.2c0.8-0.3,1.4-0.9,1.7-1.7s0.4-1.6,0-2.5c-0.4-0.8-0.9-1.4-1.7-1.7s-1.5-0.3-2.3,0
	c-0.7,0.3-1.2,0.7-1.6,1.3C43.7,101.6,43.6,102.2,43.6,102.7z M45.8,19.8c0,0.9,0.3,1.7,0.9,2.2l2.4,2.4c0.6,0.6,1.3,0.9,2,1
	c0.8,0.1,1.5-0.2,2.3-0.9c0.7-0.7,1.1-1.5,1.1-2.4s-0.3-1.6-0.9-2.2l-2.4-2.4c-0.7-0.6-1.4-0.9-2.3-0.9c-0.9,0-1.7,0.3-2.3,0.9
	C46.1,18.2,45.8,18.9,45.8,19.8z M46.3,92.6c0,0.6,0.2,1.2,0.6,1.8c0.4,0.6,1,1,1.8,1.2c0.4,0.1,0.7,0.1,0.9,0.1
	c0.6,0,1-0.1,1.4-0.3c0.7-0.3,1.3-1,1.6-2.1l6.7-23c0.3-0.9,0.2-1.7-0.2-2.4c-0.4-0.7-1-1.2-1.8-1.5c-0.9-0.3-1.7-0.2-2.4,0.2
	c-0.7,0.4-1.3,1-1.5,1.9l-6.8,23.2C46.3,92.2,46.3,92.5,46.3,92.6z M59,91.2c0,0.5,0.1,0.9,0.3,1.2c0.3,0.8,0.9,1.3,1.7,1.6
	c0.4,0.2,0.8,0.3,1.3,0.3c0.2,0,0.6-0.1,1.1-0.2c0.9-0.3,1.4-0.9,1.7-1.6c0.3-0.8,0.3-1.6,0-2.4c-0.3-0.7-0.8-1.3-1.6-1.7
	c-0.9-0.4-1.6-0.4-2.4-0.1c-0.8,0.3-1.4,0.9-1.8,1.8C59.1,90.3,59,90.7,59,91.2z M61.7,81.6c0,0.6,0.2,1.2,0.6,1.7
	c0.4,0.6,1,0.9,1.7,1.2c0.3,0.1,0.6,0.1,0.9,0.1c1.4,0,2.4-0.7,2.9-2.3l3.8-11.9c0.3-0.9,0.2-1.7-0.3-2.4c-0.4-0.7-1.1-1.2-1.9-1.5
	c-0.9-0.3-1.7-0.2-2.4,0.2c-0.7,0.4-1.2,1-1.5,1.9l-3.8,12C61.8,81.1,61.7,81.4,61.7,81.6z M65.6,36.4c2.5-2.4,5.5-3.6,9.2-3.6
	c3.6,0,6.7,1.3,9.2,3.9c2.6,2.5,3.8,5.7,3.8,9.3c0,2.3-0.6,4.6-1.9,6.9c-3.6-3.6-7.8-5.4-13-5.4h-1.1C70.8,43.1,68.7,39.4,65.6,36.4
	z M71.6,16.6c0,0.9,0.3,1.6,0.9,2.3c0.6,0.6,1.4,0.9,2.3,0.9c0.9,0,1.6-0.3,2.2-0.9c0.6-0.6,0.9-1.4,0.9-2.3V8.9
	c0-0.9-0.3-1.6-0.9-2.3c-0.6-0.6-1.3-0.9-2.2-0.9S73.2,6,72.6,6.7S71.6,8,71.6,8.9V16.6z M92.2,25.2c0,0.9,0.3,1.6,0.9,2.2
	c0.6,0.6,1.3,1,2.1,1c0.9,0,1.6-0.3,2.2-1l5.3-5.4c0.7-0.6,1-1.3,1-2.2c0-0.9-0.3-1.6-1-2.3c-0.6-0.6-1.4-0.9-2.3-0.9
	c-0.8,0-1.5,0.3-2.1,1L93.1,23C92.5,23.5,92.2,24.3,92.2,25.2z M95.2,69.8c0,0.9,0.3,1.6,0.9,2.2l2.4,2.4c0.5,0.7,1.3,1,2.2,1
	c0.9,0,1.6-0.3,2.1-1c0.7-0.6,1-1.3,1-2.2s-0.3-1.6-1-2.3l-2.4-2.3c-0.6-0.7-1.3-1-2.1-1c-0.9,0-1.6,0.3-2.2,0.9
	C95.4,68.1,95.2,68.9,95.2,69.8z M100.6,45.9c0,0.9,0.3,1.6,1,2.2c0.7,0.7,1.4,1,2.3,1h7.5c0.9,0,1.6-0.3,2.3-0.9
	c0.6-0.6,1-1.4,1-2.3c0-0.9-0.3-1.6-0.9-2.2c-0.6-0.6-1.4-0.9-2.3-0.9h-7.5c-0.9,0-1.7,0.3-2.3,0.9
	C100.9,44.3,100.6,45.1,100.6,45.9z"/>
</svg>
