<?xml version="1.0" encoding="utf-8"?>
<!-- Generator: Adobe Illustrator 25.2.1, SVG Export Plug-In . SVG Version: 6.00 Build 0)  -->
<svg version="1.1" id="Layer_1" xmlns="http://www.w3.org/2000/svg" xmlns:xlink="http://www.w3.org/1999/xlink" x="0px" y="0px"
	 viewBox="0 0 119.5 112.4" style="enable-background:new 0 0 119.5 112.4;" xml:space="preserve">
<path d="M8.9,67.7c0,4.2,1.2,7.8,3.6,11.1c2.4,3.3,5.6,5.5,9.5,6.7l-2.4,6.4c-0.1,0.5,0,0.8,0.5,0.8h7.9l-4.6,14.8h1.1L40,87.2
	c0.1-0.2,0.1-0.3,0-0.5c-0.1-0.2-0.3-0.3-0.5-0.3h-8.1L40.7,69c0.3-0.5,0.1-0.8-0.5-0.8H29.2c-0.3,0-0.6,0.2-0.9,0.5l-4,10.8
	c-2.6-0.7-4.8-2.1-6.6-4.4c-1.7-2.2-2.6-4.7-2.6-7.5c0-3.1,1-5.8,3.2-8.1c2.1-2.3,4.7-3.6,7.8-4l1.9-0.2c0.5,0,0.7-0.2,0.7-0.7
	l0.2-1.9c0.4-4.1,2.1-7.5,5.1-10.2c3-2.7,6.6-4.1,10.6-4.1s7.6,1.4,10.6,4.1c3,2.7,4.7,6.2,5.2,10.2l0.2,2.2c0,0.4,0.2,0.6,0.7,0.6
	h6c3.4,0,6.2,1.2,8.6,3.6c2.4,2.4,3.6,5.2,3.6,8.6c0,3.2-1.1,6-3.3,8.3c-2.2,2.3-4.9,3.6-8.1,3.9c-0.5,0-0.7,0.2-0.7,0.7v5.1
	c0,0.4,0.3,0.6,0.7,0.6c4.9-0.2,9.1-2.1,12.6-5.7c3.5-3.6,5.2-7.9,5.2-13c0-2.8-0.5-5.3-1.6-7.5c2.9-3.6,4.4-7.7,4.4-12.5
	c0-3.5-0.9-6.8-2.6-9.8c-1.7-3-4.1-5.4-7.1-7.2c-3-1.8-6.2-2.7-9.7-2.7c-5.7,0-10.5,2.2-14.4,6.5c-3-1.6-6.3-2.4-10-2.4
	c-5.2,0-9.9,1.7-14,4.9s-6.6,7.5-7.8,12.6c-4.1,1-7.5,3.1-10.1,6.5S8.9,63.3,8.9,67.7z M38.9,103.6c0,0.6,0.1,1.1,0.5,1.7
	c0.4,0.5,1,0.9,1.7,1.2c0.3,0.1,0.5,0.1,0.8,0.1c0.6,0,1.3-0.2,1.9-0.6c0.6-0.4,1-1,1.3-1.8l8.5-32.2c0.2-0.9,0.1-1.7-0.3-2.4
	c-0.4-0.8-1-1.2-1.8-1.5c-0.9-0.3-1.7-0.2-2.4,0.3c-0.7,0.4-1.3,1.1-1.5,1.9L39,102.7C39,103,38.9,103.3,38.9,103.6z M40.2,21.6
	c0,0.9,0.3,1.6,0.9,2.2l2.4,2.5c0.6,0.6,1.4,0.9,2.3,1c0.9,0,1.6-0.3,2.1-1c0.7-0.6,1-1.3,1-2.3c0-0.9-0.3-1.6-0.9-2.2l-2.3-2.5
	c-0.6-0.6-1.4-0.9-2.3-0.9c-0.9,0-1.7,0.3-2.3,0.9C40.4,19.9,40.2,20.7,40.2,21.6z M54.4,92.2c0,0.5,0.1,0.9,0.4,1.4
	c0.5,0.8,1.1,1.3,1.9,1.6c0.3,0.1,0.6,0.2,1.1,0.2c0.6,0,1-0.1,1.2-0.2c0.7-0.3,1.3-1.1,1.5-2.2L66,72.2c0.2-0.9,0.1-1.7-0.3-2.4
	c-0.4-0.7-1-1.2-1.9-1.5c-0.9-0.3-1.7-0.2-2.4,0.3c-0.7,0.4-1.2,1.1-1.4,1.9l-5.6,20.9c0,0.1,0,0.2-0.1,0.4
	C54.4,91.9,54.4,92.1,54.4,92.2z M60,38.1c2.5-2.4,5.5-3.6,9.2-3.6c3.6,0,6.7,1.3,9.3,3.8c2.6,2.6,3.9,5.7,3.9,9.3
	c0,2.3-0.6,4.7-1.9,6.9c-3.7-3.7-8-5.5-13-5.5h-1.2C65.2,44.7,63,41,60,38.1z M66,18.4c0,0.9,0.3,1.6,1,2.3s1.4,1,2.2,1
	c0.9,0,1.6-0.3,2.2-0.9c0.6-0.6,0.9-1.4,0.9-2.3v-7.7c0-0.9-0.3-1.7-0.9-2.3c-0.6-0.6-1.3-0.9-2.2-0.9c-0.9,0-1.6,0.3-2.2,0.9
	s-1,1.4-1,2.3V18.4z M86.5,27c0,0.9,0.3,1.7,1,2.3c0.5,0.6,1.2,0.9,2.1,0.9c0.9,0,1.6-0.3,2.2-0.9l5.3-5.4c0.6-0.6,1-1.3,1-2.2
	s-0.3-1.7-0.9-2.3s-1.4-0.9-2.3-0.9c-0.8,0-1.5,0.3-2.1,1l-5.3,5.4C86.9,25.3,86.5,26.1,86.5,27z M89.5,71.5c0,0.8,0.3,1.6,0.9,2.3
	l2.4,2.4c0.4,0.5,1.2,0.9,2,0.9l0,0c0,0,0.1,0,0.2,0c0.1,0,0.1,0,0.2,0c0.7,0,1.3-0.3,2-1c0.6-0.6,1-1.4,1-2.3c0-0.9-0.3-1.6-1-2.3
	l-2.4-2.3c-0.6-0.7-1.3-1-2.2-1c-0.9,0-1.6,0.3-2.2,0.9C89.8,69.9,89.5,70.7,89.5,71.5z M94.9,47.7c0,0.9,0.3,1.6,1,2.3
	c0.7,0.7,1.4,1,2.3,1h7.5c0.9,0,1.6-0.3,2.2-1s1-1.4,1-2.3s-0.3-1.6-0.9-2.2s-1.4-0.9-2.3-0.9h-7.5c-0.9,0-1.7,0.3-2.3,0.9
	C95.2,46.1,94.9,46.8,94.9,47.7z"/>
</svg>
