<?xml version="1.0" encoding="utf-8"?>
<!-- Generator: Adobe Illustrator 25.2.1, SVG Export Plug-In . SVG Version: 6.00 Build 0)  -->
<svg version="1.1" id="Layer_1" xmlns="http://www.w3.org/2000/svg" xmlns:xlink="http://www.w3.org/1999/xlink" x="0px" y="0px"
	 viewBox="0 0 122.6 105.8" style="enable-background:new 0 0 122.6 105.8;" xml:space="preserve">
<path d="M13.9,60.5c0,4.9,1.7,9,5.2,12.6c3.5,3.5,7.7,5.4,12.6,5.6c0.4,0,0.6-0.2,0.6-0.6v-5c0-0.4-0.2-0.7-0.6-0.7
	c-3.2-0.3-6-1.5-8.1-3.8c-2.2-2.3-3.3-5-3.3-8.1c0-3.1,1-5.8,3.2-8c2.1-2.3,4.7-3.6,7.8-3.8l1.9-0.3c0.5,0,0.7-0.2,0.7-0.6l0.2-1.9
	c0.4-4,2.1-7.3,5.1-9.9c3-2.7,6.5-4,10.6-4c4.1,0,7.6,1.3,10.6,4c3,2.6,4.7,6,5.2,10l0.3,2.1c0,0.4,0.2,0.6,0.7,0.6h6
	c3.4,0,6.3,1.2,8.6,3.5c2.4,2.3,3.6,5.1,3.6,8.4c0,3.1-1.1,5.8-3.3,8.1c-2.2,2.3-4.9,3.6-8.1,3.8c-0.5,0-0.7,0.2-0.7,0.7v5
	c0,0.4,0.3,0.6,0.7,0.6c4.9-0.1,9.2-2,12.6-5.5c3.4-3.5,5.1-7.7,5.1-12.6c0-2.5-0.6-5-1.7-7.6c2.9-3.4,4.4-7.4,4.4-12
	c0-2.6-0.5-5.1-1.6-7.5c-1-2.4-2.4-4.4-4.2-6.1c-1.7-1.7-3.8-3.1-6.2-4.1c-2.4-1-4.9-1.5-7.6-1.5c-5.7,0-10.6,2.1-14.4,6.3
	c-3.2-1.5-6.5-2.3-9.9-2.3c-5.3,0-9.9,1.6-14,4.8S29.2,37.9,28,43c-4.1,1-7.5,3-10.2,6.3C15.2,52.6,13.9,56.3,13.9,60.5z
	 M41.8,101.8h1.1l19.8-28.8c0.1-0.1,0.2-0.3,0.1-0.5c-0.1-0.2-0.3-0.3-0.5-0.3h-8.1l8.6-15.4c0.3-0.5,0.1-0.8-0.5-0.8H51.2
	c-0.3,0-0.6,0.2-0.8,0.5l-8,21c-0.1,0.5,0.1,0.8,0.5,0.8h8.1L41.8,101.8z M45,15.4c0,0.9,0.3,1.7,0.9,2.3l2.5,2.4
	c1.6,1.2,3.1,1.2,4.5,0c0.6-0.7,0.9-1.4,0.9-2.3c0-0.8-0.3-1.6-0.9-2.2l-2.4-2.4c-0.7-0.6-1.5-0.9-2.3-0.9c-0.9,0-1.6,0.3-2.2,0.9
	C45.3,13.8,45,14.6,45,15.4z M64.9,31.7c2.5-2.5,5.6-3.7,9.2-3.7c3.6,0,6.7,1.3,9.3,3.8c2.6,2.5,3.8,5.6,3.8,9.2
	c0,2.2-0.6,4.4-1.9,6.6c-3.6-3.4-7.9-5.2-12.9-5.2h-1.2C70.3,38.3,68.2,34.7,64.9,31.7z M70.9,12.3c0,0.9,0.3,1.7,0.9,2.3
	c0.6,0.6,1.3,0.9,2.3,0.9c0.9,0,1.6-0.3,2.2-0.9c0.6-0.6,0.9-1.4,0.9-2.3V4.8c0-0.9-0.3-1.6-0.9-2.2c-0.6-0.6-1.3-0.8-2.2-0.8
	c-0.9,0-1.6,0.3-2.2,0.8s-0.9,1.3-0.9,2.2V12.3z M91.5,20.8c0,0.8,0.3,1.6,1,2.2c0.7,0.6,1.4,0.9,2,0.9c0.6,0,1.4-0.3,2.3-0.9
	l5.4-5.2c0.6-0.7,0.9-1.4,0.9-2.3c0-0.9-0.3-1.6-0.9-2.2c-0.6-0.6-1.4-0.9-2.2-0.9c-0.8,0-1.5,0.3-2.2,0.9l-5.3,5.2
	C91.8,19.2,91.5,19.9,91.5,20.8z M94.5,64.1c0,0.8,0.3,1.6,0.9,2.2l2.4,2.4c0.6,0.6,1.3,0.9,2.2,0.9c0.9,0,1.6-0.3,2.2-0.9
	c0.6-0.6,0.9-1.4,0.9-2.3c0-0.8-0.3-1.5-0.9-2.1l-2.3-2.4c-0.7-0.6-1.5-0.8-2.3-0.8c-0.9,0-1.6,0.3-2.2,0.9
	C94.8,62.5,94.5,63.2,94.5,64.1z M99.9,41c0,0.8,0.3,1.5,1,2.1c0.6,0.6,1.4,0.9,2.2,0.9h7.6c0.9,0,1.6-0.3,2.3-0.9
	c0.6-0.6,0.9-1.3,0.9-2.2s-0.3-1.6-1-2.2c-0.6-0.6-1.4-0.9-2.2-0.9h-7.6c-0.9,0-1.6,0.3-2.2,0.9C100.2,39.4,99.9,40.1,99.9,41z"/>
</svg>
